<svg width="47" height="47" viewBox="0 0 47 47" fill="none" xmlns="http://www.w3.org/2000/svg">
<g filter="url(#filter0_d_441_833)">
<circle cx="23.6109" cy="20.6109" r="20.6109" fill="#F4D7A6"/>
<circle cx="23.6109" cy="20.6109" r="19.9352" stroke="#FDF6EA" stroke-width="1.35154"/>
</g>
<g clip-path="url(#clip0_441_833)">
<path d="M23.9602 15.2025H21.3574L20.0016 18.7846H24.5694L24.7434 18.3185H23.9602H23.6739V18.0322V15.9549V15.6686H23.9602H29.3459H29.6321V15.9549V18.0322V18.3185H29.3459H27.6588L25.9146 22.9392H25.9937C26.5773 20.6064 28.655 18.9116 31.2175 18.7953C34.3858 18.6427 37.172 21.1819 37.172 24.2642C37.172 27.3403 34.6643 29.7438 31.5001 29.7438C28.8052 29.7438 26.5928 28.0092 25.9932 25.5891H21.9267C21.3431 27.9221 19.2652 29.617 16.7026 29.7331L16.7024 29.7331C13.5352 29.8749 10.7484 27.3471 10.7484 24.2538C10.7484 21.1777 13.2562 18.7742 16.4203 18.7742H17.1094L18.8668 14.109L18.8671 14.1081C19.223 13.1732 20.1396 12.5526 21.1597 12.5526H23.9602H24.2465V12.8389V14.9162V15.2025H23.9602ZM28.9014 25.5891C29.3814 26.4838 30.3441 27.0939 31.5001 27.0939C33.1615 27.0939 34.4452 25.8413 34.4452 24.2642C34.4452 22.6871 33.1615 21.4345 31.5001 21.4345C30.3441 21.4345 29.3814 22.0446 28.9014 22.9392H31.5001H31.7864V23.2255V25.3028V25.5891H31.5001H28.9014ZM15.1938 23.8309L16.0908 21.4501C14.5868 21.5986 13.4645 22.7895 13.4645 24.2642C13.4645 25.8401 14.7577 27.0939 16.4203 27.0939C18.0817 27.0939 19.3654 25.8413 19.3654 24.2642C19.3654 23.5383 19.0907 22.8959 18.6366 22.4002L17.7546 24.7391L17.656 25.0004L17.3924 24.9084L15.3674 24.2021L15.0903 24.1055L15.1938 23.8309ZM21.2822 21.4345C21.5724 21.892 21.7953 22.3947 21.9285 22.9392H23.0085L23.5781 21.4345H21.2822Z" fill="#FA7300" stroke="white" stroke-width="0.572564"/>
</g>
<defs>
<filter id="filter0_d_441_833" x="0.296928" y="0" width="46.6278" height="46.6278" filterUnits="userSpaceOnUse" color-interpolation-filters="sRGB">
<feFlood flood-opacity="0" result="BackgroundImageFix"/>
<feColorMatrix in="SourceAlpha" type="matrix" values="0 0 0 0 0 0 0 0 0 0 0 0 0 0 0 0 0 0 127 0" result="hardAlpha"/>
<feOffset dy="2.70307"/>
<feGaussianBlur stdDeviation="1.35154"/>
<feComposite in2="hardAlpha" operator="out"/>
<feColorMatrix type="matrix" values="0 0 0 0 0 0 0 0 0 0 0 0 0 0 0 0 0 0 0.25 0"/>
<feBlend mode="normal" in2="BackgroundImageFix" result="effect1_dropShadow_441_833"/>
<feBlend mode="normal" in="SourceGraphic" in2="effect1_dropShadow_441_833" result="shape"/>
</filter>
<clipPath id="clip0_441_833">
<rect width="30.5106" height="29.4212" fill="white" transform="matrix(-1 0 0 1 38.7505 6.08203)"/>
</clipPath>
</defs>
</svg>
