<svg width="186" height="188" viewBox="0 0 186 188" fill="none" xmlns="http://www.w3.org/2000/svg">
<circle cx="85.7947" cy="101.192" r="5.65361" fill="#3D5AA6"/>
<circle cx="94.4925" cy="91.6243" r="5.65361" fill="#3D5AA6"/>
<circle cx="104.06" cy="82.9261" r="5.65361" fill="#3D5AA6"/>
<circle cx="112.758" cy="73.3577" r="5.65361" fill="#3D5AA6"/>
<circle cx="121.455" cy="64.6604" r="5.65361" fill="#3D5AA6"/>
<circle cx="40.9363" cy="145.547" r="5.65361" fill="#3D5AA6"/>
<circle cx="49.6341" cy="135.979" r="5.65361" fill="#3D5AA6"/>
<circle cx="59.2019" cy="127.282" r="5.65361" fill="#3D5AA6"/>
<circle cx="5.65409" cy="182.221" r="5.65361" fill="#3D5AA6"/>
<circle cx="14.3523" cy="172.653" r="5.65361" fill="#3D5AA6"/>
<circle cx="23.9197" cy="163.955" r="5.65361" fill="#3D5AA6"/>
<circle cx="143.879" cy="42.1849" r="5.65361" fill="#3D5AA6"/>
<circle cx="152.576" cy="32.6175" r="5.65361" fill="#3D5AA6"/>
<circle cx="162.144" cy="23.9192" r="5.65361" fill="#3D5AA6"/>
<path d="M176.496 14.3518C176.496 17.4742 173.964 20.0055 170.842 20.0055C167.72 20.0055 165.188 17.4742 165.188 14.3518C165.188 11.2294 167.72 8.69824 170.842 8.69824C173.964 8.69824 176.496 11.2294 176.496 14.3518Z" fill="#3D5AA6"/>
<circle cx="179.54" cy="5.65361" r="5.65361" fill="#3D5AA6"/>
</svg>
