<svg width="181" height="169" viewBox="0 0 181 169" fill="none" xmlns="http://www.w3.org/2000/svg">
<circle cx="18.3628" cy="5.7607" r="5.65361" transform="rotate(91.1013 18.3628 5.7607)" fill="#3D5AA6"/>
<path d="M45.5642 38.9054C42.4424 38.8454 39.9603 36.266 40.0203 33.1442C40.0803 30.0224 42.6597 27.5403 45.7815 27.6003C48.9033 27.6603 51.3854 30.2397 51.3254 33.3615C51.2654 36.4834 48.686 38.9655 45.5642 38.9054Z" fill="#3D5AA6"/>
<circle cx="54.2022" cy="42.1162" r="5.65361" transform="rotate(91.1013 54.2022 42.1162)" fill="#3D5AA6"/>
<circle cx="75.3003" cy="64.2101" r="5.65361" transform="rotate(89.0737 75.3003 64.2101)" fill="#3D5AA6"/>
<circle cx="85.0069" cy="72.7521" r="5.65361" transform="rotate(89.0737 85.0069 72.7521)" fill="#3D5AA6"/>
<circle cx="93.8585" cy="82.1779" r="5.65361" transform="rotate(89.0737 93.8585 82.1779)" fill="#3D5AA6"/>
<path d="M103.657 96.3737C100.535 96.4242 97.9636 93.9342 97.9131 90.8122C97.8626 87.6902 100.353 85.1184 103.475 85.068C106.597 85.0175 109.168 87.5074 109.219 90.6294C109.269 93.7514 106.779 96.3232 103.657 96.3737Z" fill="#3D5AA6"/>
<circle cx="112.403" cy="99.2765" r="5.65361" transform="rotate(89.0737 112.403 99.2765)" fill="#3D5AA6"/>
<circle cx="136.524" cy="124.93" r="5.65361" transform="rotate(44.6669 136.524 124.93)" fill="#3D5AA6"/>
<circle cx="145.641" cy="133.942" r="5.65361" transform="rotate(44.6669 145.641 133.942)" fill="#3D5AA6"/>
<circle cx="154.758" cy="142.953" r="5.65361" transform="rotate(44.6669 154.758 142.953)" fill="#3D5AA6"/>
<circle cx="163.875" cy="151.965" r="5.65361" transform="rotate(44.6669 163.875 151.965)" fill="#3D5AA6"/>
<circle cx="172.992" cy="160.977" r="5.65361" transform="rotate(44.6669 172.992 160.977)" fill="#3D5AA6"/>
</svg>
