<svg width="62" height="198" viewBox="0 0 62 198" fill="none" xmlns="http://www.w3.org/2000/svg">
<circle cx="6.6624" cy="56.9314" r="5.65361" transform="rotate(-90 6.6624 56.9314)" fill="#3D5AA6"/>
<circle cx="6.6624" cy="44.112" r="5.65361" transform="rotate(-90 6.6624 44.112)" fill="#3D5AA6"/>
<circle cx="6.6624" cy="31.2927" r="5.65361" transform="rotate(-90 6.6624 31.2927)" fill="#3D5AA6"/>
<circle cx="6.6624" cy="18.4733" r="5.65361" transform="rotate(-90 6.6624 18.4733)" fill="#3D5AA6"/>
<path d="M6.158 109.879C9.2804 109.879 11.8116 112.411 11.8116 115.533C11.8116 118.655 9.2804 121.187 6.158 121.187C3.0356 121.187 0.504395 118.655 0.504395 115.533C0.504395 112.411 3.0356 109.879 6.158 109.879Z" fill="#3D5AA6"/>
<circle cx="6.158" cy="103.436" r="5.65361" transform="rotate(-90 6.158 103.436)" fill="#3D5AA6"/>
<circle cx="6.158" cy="91.3386" r="5.65361" transform="rotate(-90 6.158 91.3386)" fill="#3D5AA6"/>
<circle cx="6.158" cy="78.739" r="5.65361" transform="rotate(-90 6.158 78.739)" fill="#3D5AA6"/>
<circle cx="5.65458" cy="153.839" r="5.65361" transform="rotate(-90 5.65458 153.839)" fill="#3D5AA6"/>
</svg>
