<svg width="260" height="89" viewBox="0 0 260 89" fill="none" xmlns="http://www.w3.org/2000/svg">
<circle cx="5.65312" cy="5.65303" r="5.65361" transform="rotate(-90 5.65312 5.65303)" fill="#3D5AA6"/>
<circle cx="5.65312" cy="18.6989" r="5.65361" transform="rotate(-90 5.65312 18.6989)" fill="#3D5AA6"/>
<circle cx="5.65312" cy="31.7458" r="5.65361" transform="rotate(-90 5.65312 31.7458)" fill="#3D5AA6"/>
<circle cx="5.65312" cy="44.7917" r="5.65361" transform="rotate(-90 5.65312 44.7917)" fill="#3D5AA6"/>
<circle cx="5.65312" cy="57.8396" r="5.65361" transform="rotate(-90 5.65312 57.8396)" fill="#3D5AA6"/>
<circle cx="5.65312" cy="70.0173" r="5.65361" transform="rotate(-90 5.65312 70.0173)" fill="#3D5AA6"/>
<circle cx="5.65312" cy="83.0632" r="5.65361" transform="rotate(-90 5.65312 83.0632)" fill="#3D5AA6"/>
<circle cx="18.7005" cy="83.0642" r="5.65361" transform="rotate(-90 18.7005 83.0642)" fill="#3D5AA6"/>
<circle cx="31.7474" cy="83.0642" r="5.65361" transform="rotate(-90 31.7474 83.0642)" fill="#3D5AA6"/>
<circle cx="44.7942" cy="83.0642" r="5.65361" transform="rotate(-90 44.7942 83.0642)" fill="#3D5AA6"/>
<circle cx="57.8406" cy="83.0642" r="5.65361" transform="rotate(-90 57.8406 83.0642)" fill="#3D5AA6"/>
<circle cx="70.8875" cy="83.0642" r="5.65361" transform="rotate(-90 70.8875 83.0642)" fill="#3D5AA6"/>
<circle cx="83.9344" cy="83.0642" r="5.65361" transform="rotate(-90 83.9344 83.0642)" fill="#3D5AA6"/>
<circle cx="96.9812" cy="83.0642" r="5.65361" transform="rotate(-90 96.9812 83.0642)" fill="#3D5AA6"/>
<circle cx="110.028" cy="83.0642" r="5.65361" transform="rotate(-90 110.028 83.0642)" fill="#3D5AA6"/>
<circle cx="123.075" cy="83.0642" r="5.65361" transform="rotate(-90 123.075 83.0642)" fill="#3D5AA6"/>
<circle cx="136.121" cy="83.0642" r="5.65361" transform="rotate(-90 136.121 83.0642)" fill="#3D5AA6"/>
<circle cx="149.168" cy="83.0642" r="5.65361" transform="rotate(-90 149.168 83.0642)" fill="#3D5AA6"/>
<circle cx="162.215" cy="83.0642" r="5.65361" transform="rotate(-90 162.215 83.0642)" fill="#3D5AA6"/>
<circle cx="175.262" cy="83.0642" r="5.65361" transform="rotate(-90 175.262 83.0642)" fill="#3D5AA6"/>
<circle cx="188.309" cy="83.0642" r="5.65361" transform="rotate(-90 188.309 83.0642)" fill="#3D5AA6"/>
<circle cx="201.355" cy="83.0642" r="5.65361" transform="rotate(-90 201.355 83.0642)" fill="#3D5AA6"/>
<circle cx="214.402" cy="83.0642" r="5.65361" transform="rotate(-90 214.402 83.0642)" fill="#3D5AA6"/>
<circle cx="227.449" cy="83.0642" r="5.65361" transform="rotate(-90 227.449 83.0642)" fill="#3D5AA6"/>
<circle cx="240.496" cy="83.0642" r="5.65361" transform="rotate(-90 240.496 83.0642)" fill="#3D5AA6"/>
<circle cx="253.543" cy="83.0642" r="5.65361" transform="rotate(-90 253.543 83.0642)" fill="#3D5AA6"/>
</svg>
