<svg width="67" height="244" viewBox="0 0 67 244" fill="none" xmlns="http://www.w3.org/2000/svg">
<circle cx="8.26347" cy="191.788" r="5.65361" fill="#3D5AA6"/>
<circle cx="13.4822" cy="203.096" r="5.65361" fill="#3D5AA6"/>
<circle cx="20.4407" cy="213.533" r="5.65361" fill="#3D5AA6"/>
<circle cx="29.138" cy="222.23" r="5.65361" fill="#3D5AA6"/>
<circle cx="38.7059" cy="230.059" r="5.65361" fill="#3D5AA6"/>
<circle cx="49.1434" cy="236.147" r="5.65361" fill="#3D5AA6"/>
<circle cx="61.3201" cy="237.887" r="5.65361" fill="#3D5AA6"/>
<circle cx="5.65312" cy="5.65361" r="5.65361" fill="#3D5AA6"/>
<circle cx="5.65312" cy="17.8304" r="5.65361" fill="#3D5AA6"/>
<circle cx="5.65312" cy="43.054" r="5.65361" fill="#3D5AA6"/>
<circle cx="5.65312" cy="56.1009" r="5.65361" fill="#3D5AA6"/>
<circle cx="5.65312" cy="69.1478" r="5.65361" fill="#3D5AA6"/>
<circle cx="5.65312" cy="82.1946" r="5.65361" fill="#3D5AA6"/>
<circle cx="5.65312" cy="94.3714" r="5.65361" fill="#3D5AA6"/>
<circle cx="5.65312" cy="106.548" r="5.65361" fill="#3D5AA6"/>
<circle cx="5.65312" cy="118.725" r="5.65361" fill="#3D5AA6"/>
<circle cx="5.65312" cy="130.902" r="5.65361" fill="#3D5AA6"/>
<circle cx="5.65312" cy="143.079" r="5.65361" fill="#3D5AA6"/>
<circle cx="5.65312" cy="155.257" r="5.65361" fill="#3D5AA6"/>
<circle cx="5.65312" cy="167.433" r="5.65361" fill="#3D5AA6"/>
<circle cx="5.65312" cy="179.612" r="5.65361" fill="#3D5AA6"/>
<circle cx="5.65312" cy="30.0081" r="5.65361" fill="#3D5AA6"/>
</svg>
