<svg width="50" height="90" viewBox="0 0 50 90" fill="none" xmlns="http://www.w3.org/2000/svg">
<path d="M3.96417 25.0691H7.03478H10.1054C9.69482 14.7022 8.71013 9.34116 7.03478 0C5.36886 9.38008 4.52428 14.8547 3.96417 25.0691Z" fill="black"/>
<path d="M40.2172 25.0691H43.3869H46.5565C46.1712 15.1879 45.3841 9.70784 43.3869 0C41.4072 9.77999 40.6347 15.2674 40.2172 25.0691Z" fill="black"/>
<path fill-rule="evenodd" clip-rule="evenodd" d="M0.893555 89.3026V56.3817V39.0699H13.077V50.2327L18.3267 50.1918C20.2631 46.4594 21.7538 44.6545 25.2108 42.0025C28.9432 44.692 30.3393 46.5015 31.9959 50.0852L37.3447 50.0435V39.0699H49.5281V56.3817V89.3026H37.3447H13.077H0.893555Z" fill="#9E664D"/>
<path d="M0.893555 39.0699H13.077L10.6007 25.0691H10.1054H7.03478H3.96417H3.46891L0.893555 39.0699Z" fill="#ACA7A4"/>
<path d="M49.5281 39.0699L47.1508 25.0691H46.5565H43.3869H40.2172H39.6229L37.3447 39.0699H49.5281Z" fill="#ACA7A4"/>
<path d="M33.1855 81.2612V89.3968H37.0486V81.2612L35.1171 78.4232L33.1855 81.2612Z" fill="#B5B5B5" stroke="#8E8E8E" stroke-width="0.192137"/>
<path d="M37.0486 89.3026H33.1855V82.9644C33.6386 82.0015 33.9359 81.494 35.1171 81.0724C36.2632 81.5476 36.6676 81.9753 37.0486 82.9644V89.3026Z" fill="#D9D9D9" stroke="#8E8E8E" stroke-width="0.192137"/>
<path d="M14.166 81.2123V89.2076H17.93V81.2123L16.048 78.4232L14.166 81.2123Z" fill="#B5B5B5" stroke="#8E8E8E" stroke-width="0.192137"/>
<path d="M17.93 89.208H14.166V82.9426C14.6074 81.9908 14.8971 81.4892 16.048 81.0724C17.1648 81.5421 17.5587 81.9649 17.93 82.9426V89.208Z" fill="#D9D9D9" stroke="#8E8E8E" stroke-width="0.192137"/>
<path d="M5.25293 78.9911V87.1268H8.6207V78.9911C8.3634 78.1783 8.02817 77.8101 6.93681 77.3829C5.9758 77.7192 5.61397 78.0813 5.25293 78.9911Z" fill="#D9D9D9" stroke="#8E8E8E" stroke-width="0.192137"/>
<path d="M41.7051 78.8967V87.0323H45.0728V78.8967C44.8156 78.0838 44.4803 77.7156 43.389 77.2885C42.4279 77.6248 42.0661 77.9868 41.7051 78.8967Z" fill="#D9D9D9" stroke="#8E8E8E" stroke-width="0.192137"/>
<path d="M9.11512 73.7884H4.75684V61.3957C5.29196 59.8874 5.78342 59.24 6.93598 58.3685C8.19498 59.4496 8.66652 60.1138 9.11512 61.3957V73.7884Z" fill="#D9D9D9" stroke="#8E8E8E" stroke-width="0.192137"/>
<path d="M18.328 73.7884H13.9697V61.3957C14.5049 59.8874 14.9963 59.24 16.1489 58.3685C17.4079 59.4496 17.8794 60.1138 18.328 61.3957V73.7884Z" fill="#D9D9D9" stroke="#8E8E8E" stroke-width="0.192137"/>
<path d="M37.3456 73.7884H32.9873V61.3957C33.5224 59.8874 34.0139 59.24 35.1664 58.3685C36.4254 59.4496 36.897 60.1138 37.3456 61.3957V73.7884Z" fill="#D9D9D9" stroke="#8E8E8E" stroke-width="0.192137"/>
<path d="M45.6649 73.7884H41.3066V61.3957C41.8418 59.8874 42.3332 59.24 43.4858 58.3685C44.7448 59.4496 45.2163 60.1138 45.6649 61.3957V73.7884Z" fill="#D9D9D9" stroke="#8E8E8E" stroke-width="0.192137"/>
<path d="M45.6649 52.1243H41.3066V42.3927C41.8418 41.2082 42.3332 40.6999 43.4858 40.0155C44.7448 40.8645 45.2163 41.386 45.6649 42.3927V52.1243Z" fill="#D9D9D9" stroke="#8E8E8E" stroke-width="0.192137"/>
<path d="M9.21376 52.1243H4.85547V42.3927C5.39059 41.2082 5.88205 40.6999 7.03461 40.0155C8.29361 40.8645 8.76516 41.386 9.21376 42.3927V52.1243Z" fill="#D9D9D9" stroke="#8E8E8E" stroke-width="0.192137"/>
<path d="M29.2233 73.5043H21.002V63.0037C21.7164 60.6614 22.5623 59.6309 25.1126 58.4629C27.8962 59.5986 28.7036 60.6425 29.2233 63.0037V73.5043Z" fill="#D9D9D9" stroke="#8E8E8E" stroke-width="0.192137"/>
<path d="M29.1257 63.2872C29.1257 65.4243 27.3103 67.1643 25.0616 67.1643C22.8128 67.1643 20.9974 65.4243 20.9974 63.2872C20.9974 61.15 22.8128 59.41 25.0616 59.41C27.3103 59.41 29.1257 61.15 29.1257 63.2872Z" fill="#D9D9D9" stroke="#8E8E8E" stroke-width="0.192137"/>
<path d="M29.3248 68.3959V73.5043H25.2142H21.1035V68.3959C21.6838 67.7252 22.4902 66.9769 23.1836 66.7877C23.877 66.9769 24.6223 67.5974 25.2142 68.3959C25.8796 67.4561 26.6504 66.9769 27.2447 66.7877C28.2353 66.9769 28.7055 67.6098 29.3248 68.3959Z" fill="#D9D9D9"/>
<path d="M25.2142 73.5043H21.1035V68.3959C21.6838 67.7252 22.4902 66.9769 23.1836 66.7877C23.877 66.9769 24.6223 67.5974 25.2142 68.3959M25.2142 73.5043H29.3248V68.3959C28.7055 67.6098 28.2353 66.9769 27.2447 66.7877C26.6504 66.9769 25.8796 67.4561 25.2142 68.3959M25.2142 73.5043V68.3959" stroke="#8E8E8E" stroke-width="0.192137"/>
<path d="M8.22435 35.0965H5.74805V27.7177C6.06168 27.069 6.33581 26.7814 6.9862 26.3933C7.75375 26.7585 7.95464 27.0864 8.22435 27.7177V35.0965Z" fill="#D9D9D9" stroke="#8E8E8E" stroke-width="0.192137"/>
<path d="M44.7732 35.0965H42.2969V27.7177C42.6105 27.069 42.8846 26.7814 43.535 26.3933C44.3026 26.7585 44.5035 27.0864 44.7732 27.7177V35.0965Z" fill="#D9D9D9" stroke="#8E8E8E" stroke-width="0.192137"/>
<path d="M20.9014 89.2074V82.4627C21.0323 82.219 21.1586 81.9904 21.2844 81.7751L25.2597 74.6389L28.4911 80.4398C28.9497 80.9814 29.2761 81.6337 29.6179 82.4627V89.2074H20.9014Z" fill="#D9D9D9"/>
<path d="M20.9014 82.4627V89.2074H29.6179V82.4627M20.9014 82.4627C21.9441 80.5217 22.6921 79.5403 25.2597 78.5958C28.0434 79.472 28.785 80.4426 29.6179 82.4627M20.9014 82.4627L25.2597 74.6389L29.6179 82.4627" stroke="#8E8E8E" stroke-width="0.192137"/>
</svg>
