<svg width="149" height="133" viewBox="0 0 149 133" fill="none" xmlns="http://www.w3.org/2000/svg">
<circle cx="138.302" cy="83.0467" r="10.6981" fill="#D9D9D9" fill-opacity="0.6"/>
<circle cx="105.698" cy="80.246" r="10.6981" fill="#A5A5A5" fill-opacity="0.6"/>
<circle cx="121.491" cy="88.3964" r="10.6981" fill="#B9B9B9" fill-opacity="0.6"/>
<circle cx="121.491" cy="88.3964" r="10.6981" fill="#B9B9B9" fill-opacity="0.6"/>
<circle cx="124.802" cy="77.6981" r="10.6981" fill="#C6C6C6" fill-opacity="0.6"/>
<circle cx="121.302" cy="70.0467" r="10.6981" fill="#D9D9D9" fill-opacity="0.6"/>
<circle cx="88.6981" cy="67.246" r="10.6981" fill="#A5A5A5" fill-opacity="0.6"/>
<circle cx="104.491" cy="75.3964" r="10.6981" fill="#B9B9B9" fill-opacity="0.6"/>
<circle cx="104.491" cy="75.3964" r="10.6981" fill="#B9B9B9" fill-opacity="0.6"/>
<circle cx="107.802" cy="64.6981" r="10.6981" fill="#C6C6C6" fill-opacity="0.6"/>
<circle cx="130.302" cy="94.0467" r="10.6981" fill="#D9D9D9" fill-opacity="0.6"/>
<circle cx="113.491" cy="99.3964" r="10.6981" fill="#B9B9B9" fill-opacity="0.6"/>
<circle cx="113.491" cy="99.3964" r="10.6981" fill="#B9B9B9" fill-opacity="0.6"/>
<circle cx="61.6981" cy="84.6981" r="10.6981" fill="#C6C6C6" fill-opacity="0.6"/>
<circle cx="107.698" cy="55.6981" r="10.6981" fill="#D9D9D9" fill-opacity="0.6"/>
<circle cx="71.6981" cy="58.246" r="10.6981" fill="#A5A5A5" fill-opacity="0.6"/>
<circle cx="87.4906" cy="66.3964" r="10.6981" fill="#B9B9B9" fill-opacity="0.6"/>
<circle cx="87.4906" cy="66.3964" r="10.6981" fill="#B9B9B9" fill-opacity="0.6"/>
<circle cx="54.6981" cy="45.246" r="10.6981" fill="#A5A5A5" fill-opacity="0.6"/>
<circle cx="17.6981" cy="31.6981" r="10.6981" fill="#B9B9B9" fill-opacity="0.6"/>
<circle cx="17.6981" cy="31.6981" r="10.6981" fill="#B9B9B9" fill-opacity="0.6"/>
<circle cx="96.3019" cy="72.0467" r="10.6981" fill="#D9D9D9" fill-opacity="0.6"/>
<circle cx="63.6981" cy="69.246" r="10.6981" fill="#A5A5A5" fill-opacity="0.6"/>
<circle cx="79.4906" cy="77.3964" r="10.6981" fill="#B9B9B9" fill-opacity="0.6"/>
<circle cx="79.4906" cy="77.3964" r="10.6981" fill="#B9B9B9" fill-opacity="0.6"/>
<circle cx="35.6981" cy="61.6981" r="10.6981" fill="#C6C6C6" fill-opacity="0.6"/>
<circle cx="69.6981" cy="93.246" r="10.6981" fill="#A5A5A5" fill-opacity="0.6"/>
<circle cx="85.4906" cy="101.396" r="10.6981" fill="#B9B9B9" fill-opacity="0.6"/>
<circle cx="85.4906" cy="101.396" r="10.6981" fill="#B9B9B9" fill-opacity="0.6"/>
<circle cx="104.698" cy="93.6981" r="10.6981" fill="#C6C6C6" fill-opacity="0.6"/>
<circle cx="26.6981" cy="81.6981" r="10.6981" fill="#D9D9D9" fill-opacity="0.6"/>
<circle cx="52.6981" cy="80.246" r="10.6981" fill="#A5A5A5" fill-opacity="0.6"/>
<circle cx="50.6981" cy="80.6981" r="10.6981" fill="#A5A5A5" fill-opacity="0.6"/>
<circle cx="71.8019" cy="77.6981" r="10.6981" fill="#C6C6C6" fill-opacity="0.6"/>
<circle cx="20.6981" cy="52.6981" r="10.6981" fill="#838383" fill-opacity="0.6"/>
<circle cx="33.6981" cy="28.6981" r="10.6981" fill="#515151" fill-opacity="0.6"/>
<circle cx="53.1212" cy="92.1649" r="10.6981" transform="rotate(161.966 53.1212 92.1649)" fill="#838383" fill-opacity="0.6"/>
<circle cx="47.1949" cy="80.4227" r="10.6981" transform="rotate(161.966 47.1949 80.4227)" fill="#A5A5A5" fill-opacity="0.6"/>
<circle cx="22.3397" cy="107.445" r="10.6981" transform="rotate(161.966 22.3397 107.445)" fill="#515151" fill-opacity="0.6"/>
<circle cx="13.4845" cy="93.4842" r="10.6981" transform="rotate(161.966 13.4845 93.4842)" fill="#515151" fill-opacity="0.6"/>
<circle cx="38.6981" cy="121.698" r="10.6981" fill="#838383" fill-opacity="0.6"/>
<circle cx="17.6981" cy="102.698" r="10.6981" fill="#838383" fill-opacity="0.6"/>
<circle cx="35.6981" cy="106.698" r="10.6981" fill="#8E8E8E" fill-opacity="0.6"/>
<circle cx="53.6981" cy="113.698" r="10.6981" fill="#A5A5A5" fill-opacity="0.6"/>
<circle cx="19.6981" cy="115.698" r="10.6981" fill="#A5A5A5" fill-opacity="0.6"/>
<circle cx="33.6981" cy="27.6981" r="10.6981" fill="#838383" fill-opacity="0.6"/>
<circle cx="22.6981" cy="10.6981" r="10.6981" fill="#8E8E8E" fill-opacity="0.6"/>
<circle cx="13.6981" cy="61.6981" r="10.6981" fill="#A5A5A5" fill-opacity="0.6"/>
<circle cx="39.6981" cy="56.6981" r="10.6981" fill="#BCBCBC" fill-opacity="0.6"/>
</svg>
