<svg width="377" height="125" viewBox="0 0 377 125" fill="none" xmlns="http://www.w3.org/2000/svg">
<circle cx="9.99042" cy="66.5539" r="9.99042" fill="#A5A5A5" fill-opacity="0.6"/>
<circle cx="16.5273" cy="52.5461" r="9.99042" fill="#515151" fill-opacity="0.6"/>
<circle cx="30.5351" cy="52.5461" r="9.99042" fill="#757575" fill-opacity="0.6"/>
<circle cx="25.8659" cy="65.6203" r="9.99042" fill="#282828" fill-opacity="0.6"/>
<circle cx="23.0644" cy="36.6711" r="9.99042" fill="#282828" fill-opacity="0.6"/>
<circle cx="22.1306" cy="22.6633" r="9.99042" fill="#515151" fill-opacity="0.6"/>
<circle cx="80.1833" cy="60.4182" r="9.99042" fill="#A5A5A5" fill-opacity="0.6"/>
<circle cx="52.0136" cy="41.34" r="9.99042" fill="#838383" fill-opacity="0.6"/>
<circle cx="32.4028" cy="23.5969" r="9.99042" fill="#838383" fill-opacity="0.6"/>
<circle cx="49.2121" cy="27.3322" r="9.99042" fill="#8E8E8E" fill-opacity="0.6"/>
<circle cx="66.0214" cy="33.8693" r="9.99042" fill="#A5A5A5" fill-opacity="0.6"/>
<circle cx="34.2705" cy="35.7365" r="9.99042" fill="#A5A5A5" fill-opacity="0.6"/>
<circle cx="64.1537" cy="18.9279" r="9.99042" fill="#515151" fill-opacity="0.6"/>
<circle cx="52.0136" cy="58.1496" r="9.99042" fill="#515151" fill-opacity="0.6"/>
<circle cx="38.0058" cy="50.6789" r="9.99042" fill="#BCBCBC" fill-opacity="0.6"/>
<circle cx="52.0136" cy="41.34" r="9.99042" fill="#838383" fill-opacity="0.6"/>
<circle cx="32.4028" cy="23.5969" r="9.99042" fill="#838383" fill-opacity="0.6"/>
<circle cx="49.2121" cy="27.3322" r="9.99042" fill="#8E8E8E" fill-opacity="0.6"/>
<circle cx="66.0214" cy="33.8693" r="9.99042" fill="#A5A5A5" fill-opacity="0.6"/>
<circle cx="52.0136" cy="58.1496" r="9.99042" fill="#515151" fill-opacity="0.6"/>
<circle cx="38.0058" cy="50.6789" r="9.99042" fill="#BCBCBC" fill-opacity="0.6"/>
<circle cx="15.3621" cy="81.8177" r="9.99042" transform="rotate(75.7213 15.3621 81.8177)" fill="#838383" fill-opacity="0.6"/>
<circle cx="28.2461" cy="75.6487" r="9.99042" transform="rotate(75.7213 28.2461 75.6487)" fill="#8E8E8E" fill-opacity="0.6"/>
<circle cx="17.9031" cy="106.464" r="9.99042" transform="rotate(75.7213 17.9031 106.464)" fill="#A5A5A5" fill-opacity="0.6"/>
<circle cx="40.0764" cy="88.056" r="9.99042" transform="rotate(75.7213 40.0764 88.056)" fill="#515151" fill-opacity="0.6"/>
<circle cx="72.0664" cy="56.971" r="9.99042" transform="rotate(75.7213 72.0664 56.971)" fill="#838383" fill-opacity="0.6"/>
<circle cx="114.581" cy="47.8771" r="9.99042" fill="#838383" fill-opacity="0.6"/>
<circle cx="94.9706" cy="30.134" r="9.99042" fill="#838383" fill-opacity="0.6"/>
<circle cx="111.78" cy="33.8693" r="9.99042" fill="#8E8E8E" fill-opacity="0.6"/>
<circle cx="128.589" cy="40.4064" r="9.99042" fill="#A5A5A5" fill-opacity="0.6"/>
<circle cx="96.8383" cy="42.2736" r="9.99042" fill="#A5A5A5" fill-opacity="0.6"/>
<circle cx="28.8215" cy="11.8586" r="9.99042" fill="#515151" fill-opacity="0.6"/>
<circle cx="114.581" cy="64.6867" r="9.99042" fill="#515151" fill-opacity="0.6"/>
<circle cx="100.574" cy="57.215" r="9.99042" fill="#BCBCBC" fill-opacity="0.6"/>
<circle cx="114.581" cy="47.8771" r="9.99042" fill="#838383" fill-opacity="0.6"/>
<circle cx="94.9706" cy="30.134" r="9.99042" fill="#838383" fill-opacity="0.6"/>
<circle cx="111.78" cy="33.8693" r="9.99042" fill="#8E8E8E" fill-opacity="0.6"/>
<circle cx="111.934" cy="62.2863" r="9.99042" fill="#A5A5A5" fill-opacity="0.6"/>
<circle cx="96.8383" cy="42.2736" r="9.99042" fill="#A5A5A5" fill-opacity="0.6"/>
<circle cx="114.581" cy="64.6867" r="9.99042" fill="#515151" fill-opacity="0.6"/>
<circle cx="52.1677" cy="58.551" r="9.99042" fill="#BCBCBC" fill-opacity="0.6"/>
<circle cx="182.477" cy="48.8488" r="9.99042" fill="#838383" fill-opacity="0.6"/>
<circle cx="203.452" cy="42.675" r="9.99042" fill="#838383" fill-opacity="0.6"/>
<circle cx="220.261" cy="46.4103" r="9.99042" fill="#8E8E8E" fill-opacity="0.6"/>
<circle cx="196.485" cy="41.3781" r="9.99042" fill="#A5A5A5" fill-opacity="0.6"/>
<circle cx="164.734" cy="43.2463" r="9.99042" fill="#A5A5A5" fill-opacity="0.6"/>
<circle cx="235.202" cy="38.006" r="9.99042" fill="#515151" fill-opacity="0.6"/>
<circle cx="182.477" cy="65.6584" r="9.99042" fill="#515151" fill-opacity="0.6"/>
<circle cx="168.47" cy="58.1877" r="9.99042" fill="#BCBCBC" fill-opacity="0.6"/>
<circle cx="197.848" cy="44.5432" r="9.99042" fill="#838383" fill-opacity="0.6"/>
<circle cx="203.452" cy="42.675" r="9.99042" fill="#838383" fill-opacity="0.6"/>
<circle cx="220.261" cy="46.4103" r="9.99042" fill="#8E8E8E" fill-opacity="0.6"/>
<circle cx="185.708" cy="9.99042" r="9.99042" fill="#A5A5A5" fill-opacity="0.6"/>
<circle cx="164.734" cy="43.2463" r="9.99042" fill="#A5A5A5" fill-opacity="0.6"/>
<circle cx="235.202" cy="38.006" r="9.99042" fill="#515151" fill-opacity="0.6"/>
<circle cx="182.477" cy="65.6584" r="9.99042" fill="#515151" fill-opacity="0.6"/>
<circle cx="168.47" cy="58.1877" r="9.99042" fill="#BCBCBC" fill-opacity="0.6"/>
<circle cx="168.166" cy="84.6094" r="9.99042" transform="rotate(103.054 168.166 84.6094)" fill="#838383" fill-opacity="0.6"/>
<circle cx="189.88" cy="69.5137" r="9.99042" transform="rotate(103.054 189.88 69.5137)" fill="#838383" fill-opacity="0.6"/>
<circle cx="182.444" cy="85.044" r="9.99042" transform="rotate(103.054 182.444 85.044)" fill="#8E8E8E" fill-opacity="0.6"/>
<circle cx="172.28" cy="99.9434" r="9.99042" transform="rotate(103.054 172.28 99.9434)" fill="#A5A5A5" fill-opacity="0.6"/>
<circle cx="177.632" cy="68.5909" r="9.99042" transform="rotate(103.054 177.632 68.5909)" fill="#A5A5A5" fill-opacity="0.6"/>
<circle cx="187.257" cy="101.498" r="9.99042" transform="rotate(103.054 187.257 101.498)" fill="#515151" fill-opacity="0.6"/>
<circle cx="151.791" cy="80.8126" r="9.99042" transform="rotate(103.054 151.791 80.8126)" fill="#515151" fill-opacity="0.6"/>
<circle cx="162.233" cy="68.8546" r="9.99042" transform="rotate(103.054 162.233 68.8546)" fill="#BCBCBC" fill-opacity="0.6"/>
<circle cx="168.166" cy="84.6094" r="9.99042" transform="rotate(103.054 168.166 84.6094)" fill="#838383" fill-opacity="0.6"/>
<circle cx="189.88" cy="69.5137" r="9.99042" transform="rotate(103.054 189.88 69.5137)" fill="#838383" fill-opacity="0.6"/>
<circle cx="182.444" cy="85.044" r="9.99042" transform="rotate(103.054 182.444 85.044)" fill="#8E8E8E" fill-opacity="0.6"/>
<circle cx="172.28" cy="99.9434" r="9.99042" transform="rotate(103.054 172.28 99.9434)" fill="#A5A5A5" fill-opacity="0.6"/>
<circle cx="177.632" cy="68.5909" r="9.99042" transform="rotate(103.054 177.632 68.5909)" fill="#A5A5A5" fill-opacity="0.6"/>
<circle cx="187.257" cy="101.498" r="9.99042" transform="rotate(103.054 187.257 101.498)" fill="#515151" fill-opacity="0.6"/>
<circle cx="151.791" cy="80.8126" r="9.99042" transform="rotate(103.054 151.791 80.8126)" fill="#515151" fill-opacity="0.6"/>
<circle cx="162.233" cy="68.8546" r="9.99042" transform="rotate(103.054 162.233 68.8546)" fill="#BCBCBC" fill-opacity="0.6"/>
<circle cx="193.415" cy="85.3634" r="9.99042" transform="rotate(76.3831 193.415 85.3634)" fill="#838383" fill-opacity="0.6"/>
<circle cx="206.042" cy="62.1261" r="9.99042" transform="rotate(76.3831 206.042 62.1261)" fill="#838383" fill-opacity="0.6"/>
<circle cx="206.369" cy="79.3429" r="9.99042" transform="rotate(76.3831 206.369 79.3429)" fill="#8E8E8E" fill-opacity="0.6"/>
<circle cx="203.973" cy="97.2179" r="9.99042" transform="rotate(76.3831 203.973 97.2179)" fill="#A5A5A5" fill-opacity="0.6"/>
<circle cx="194.683" cy="66.7989" r="9.99042" transform="rotate(76.3831 194.683 66.7989)" fill="#A5A5A5" fill-opacity="0.6"/>
<circle cx="218.056" cy="91.8859" r="9.99042" transform="rotate(76.3831 218.056 91.8859)" fill="#515151" fill-opacity="0.6"/>
<circle cx="177.078" cy="89.3204" r="9.99042" transform="rotate(76.3831 177.078 89.3204)" fill="#515151" fill-opacity="0.6"/>
<circle cx="181.041" cy="73.9474" r="9.99042" transform="rotate(76.3831 181.041 73.9474)" fill="#BCBCBC" fill-opacity="0.6"/>
<circle cx="193.415" cy="85.3634" r="9.99042" transform="rotate(76.3831 193.415 85.3634)" fill="#838383" fill-opacity="0.6"/>
<circle cx="206.042" cy="62.1261" r="9.99042" transform="rotate(76.3831 206.042 62.1261)" fill="#838383" fill-opacity="0.6"/>
<circle cx="206.369" cy="79.3429" r="9.99042" transform="rotate(76.3831 206.369 79.3429)" fill="#8E8E8E" fill-opacity="0.6"/>
<circle cx="203.973" cy="97.2179" r="9.99042" transform="rotate(76.3831 203.973 97.2179)" fill="#A5A5A5" fill-opacity="0.6"/>
<circle cx="194.683" cy="66.7989" r="9.99042" transform="rotate(76.3831 194.683 66.7989)" fill="#A5A5A5" fill-opacity="0.6"/>
<circle cx="218.056" cy="91.8859" r="9.99042" transform="rotate(76.3831 218.056 91.8859)" fill="#515151" fill-opacity="0.6"/>
<circle cx="177.078" cy="89.3204" r="9.99042" transform="rotate(76.3831 177.078 89.3204)" fill="#515151" fill-opacity="0.6"/>
<circle cx="181.041" cy="73.9474" r="9.99042" transform="rotate(76.3831 181.041 73.9474)" fill="#BCBCBC" fill-opacity="0.6"/>
<circle cx="215.162" cy="45.1135" r="9.99042" fill="#838383" fill-opacity="0.6"/>
<circle cx="236.136" cy="38.9396" r="9.99042" fill="#838383" fill-opacity="0.6"/>
<circle cx="252.945" cy="42.675" r="9.99042" fill="#8E8E8E" fill-opacity="0.6"/>
<circle cx="269.755" cy="49.2121" r="9.99042" fill="#A5A5A5" fill-opacity="0.6"/>
<circle cx="238.004" cy="51.0793" r="9.99042" fill="#A5A5A5" fill-opacity="0.6"/>
<circle cx="267.887" cy="34.2707" r="9.99042" fill="#515151" fill-opacity="0.6"/>
<circle cx="215.162" cy="61.923" r="9.99042" fill="#515151" fill-opacity="0.6"/>
<circle cx="261.35" cy="58.551" r="9.99042" fill="#BCBCBC" fill-opacity="0.6"/>
<circle cx="215.162" cy="45.1135" r="9.99042" fill="#838383" fill-opacity="0.6"/>
<circle cx="236.136" cy="38.9396" r="9.99042" fill="#838383" fill-opacity="0.6"/>
<circle cx="71.7785" cy="12.7922" r="9.99042" fill="#8E8E8E" fill-opacity="0.6"/>
<circle cx="269.755" cy="49.2121" r="9.99042" fill="#A5A5A5" fill-opacity="0.6"/>
<circle cx="238.004" cy="51.0793" r="9.99042" fill="#A5A5A5" fill-opacity="0.6"/>
<circle cx="267.887" cy="34.2707" r="9.99042" fill="#515151" fill-opacity="0.6"/>
<circle cx="215.162" cy="61.923" r="9.99042" fill="#515151" fill-opacity="0.6"/>
<circle cx="118.471" cy="27.7336" r="9.99042" fill="#BCBCBC" fill-opacity="0.6"/>
<circle cx="48.4643" cy="68.7605" r="9.99042" transform="rotate(80.0375 48.4643 68.7605)" fill="#A5A5A5" fill-opacity="0.6"/>
<circle cx="42.0627" cy="91.6922" r="9.99042" transform="rotate(80.0375 42.0627 91.6922)" fill="#A5A5A5" fill-opacity="0.6"/>
<circle cx="68.6869" cy="73.2019" r="9.99042" transform="rotate(80.0375 68.6869 73.2019)" fill="#515151" fill-opacity="0.6"/>
<circle cx="56.9902" cy="95.7078" r="9.99042" transform="rotate(80.0375 56.9902 95.7078)" fill="#515151" fill-opacity="0.6"/>
<circle cx="151.799" cy="65.7312" r="9.99042" transform="rotate(80.0375 151.799 65.7312)" fill="#515151" fill-opacity="0.6"/>
<circle cx="69.0095" cy="83.1658" r="9.99042" transform="rotate(80.0375 69.0095 83.1658)" fill="#757575" fill-opacity="0.6"/>
<circle cx="88.2199" cy="98.4158" r="9.99042" transform="rotate(80.0375 88.2199 98.4158)" fill="#757575" fill-opacity="0.6"/>
<circle cx="73.757" cy="99.3992" r="9.99042" transform="rotate(80.0375 73.757 99.3992)" fill="#282828" fill-opacity="0.6"/>
<circle cx="367.009" cy="71.5871" r="9.99042" fill="#D9D9D9" fill-opacity="0.6"/>
<circle cx="336.563" cy="68.9719" r="9.99042" fill="#A5A5A5" fill-opacity="0.6"/>
<circle cx="351.31" cy="76.5832" r="9.99042" fill="#B9B9B9" fill-opacity="0.6"/>
<circle cx="351.31" cy="76.5832" r="9.99042" fill="#B9B9B9" fill-opacity="0.6"/>
<circle cx="354.403" cy="66.592" r="9.99042" fill="#C6C6C6" fill-opacity="0.6"/>
<circle cx="325.785" cy="68.4221" r="9.99042" fill="#D9D9D9" fill-opacity="0.6"/>
<circle cx="320.687" cy="56.8312" r="9.99042" fill="#A5A5A5" fill-opacity="0.6"/>
<circle cx="335.435" cy="64.4426" r="9.99042" fill="#B9B9B9" fill-opacity="0.6"/>
<circle cx="335.435" cy="64.4426" r="9.99042" fill="#B9B9B9" fill-opacity="0.6"/>
<circle cx="338.527" cy="54.4523" r="9.99042" fill="#4A4A4A" fill-opacity="0.6"/>
<circle cx="359.539" cy="81.4953" r="9.99042" fill="#414141" fill-opacity="0.6"/>
<circle cx="329.092" cy="79.2443" r="9.99042" fill="#A5A5A5" fill-opacity="0.6"/>
<circle cx="343.84" cy="86.8547" r="9.99042" fill="#B9B9B9" fill-opacity="0.6"/>
<circle cx="343.84" cy="86.8547" r="9.99042" fill="#B9B9B9" fill-opacity="0.6"/>
<circle cx="346.932" cy="76.8644" r="9.99042" fill="#C6C6C6" fill-opacity="0.6"/>
<circle cx="335.259" cy="51.0422" r="9.99042" fill="#414141" fill-opacity="0.6"/>
<circle cx="217.459" cy="50.1457" r="9.99042" fill="#A5A5A5" fill-opacity="0.6"/>
<circle cx="319.56" cy="56.0383" r="9.99042" fill="#B9B9B9" fill-opacity="0.6"/>
<circle cx="319.56" cy="56.0383" r="9.99042" fill="#B9B9B9" fill-opacity="0.6"/>
<circle cx="112.868" cy="58.551" r="9.99042" fill="#C6C6C6" fill-opacity="0.6"/>
<circle cx="80.1833" cy="80.9631" r="9.99042" fill="#D9D9D9" fill-opacity="0.6"/>
<circle cx="288.936" cy="36.2873" r="9.99042" fill="#A5A5A5" fill-opacity="0.6"/>
<circle cx="303.684" cy="43.8976" r="9.99042" fill="#B9B9B9" fill-opacity="0.6"/>
<circle cx="303.684" cy="43.8976" r="9.99042" fill="#B9B9B9" fill-opacity="0.6"/>
<circle cx="306.776" cy="33.9074" r="9.99042" fill="#C6C6C6" fill-opacity="0.6"/>
<circle cx="156.759" cy="60.4182" r="9.99042" fill="#D9D9D9" fill-opacity="0.6"/>
<circle cx="208.121" cy="53.881" r="9.99042" fill="#A5A5A5" fill-opacity="0.6"/>
<circle cx="298.636" cy="53.8139" r="9.99042" transform="rotate(-120.168 298.636 53.8139)" fill="#B9B9B9" fill-opacity="0.6"/>
<circle cx="298.636" cy="53.8139" r="9.99042" transform="rotate(-120.168 298.636 53.8139)" fill="#B9B9B9" fill-opacity="0.6"/>
<circle cx="315.181" cy="56.3195" r="9.99042" fill="#222222" fill-opacity="0.6"/>
<circle cx="333.391" cy="83.7267" r="9.99042" fill="#262626" fill-opacity="0.6"/>
<circle cx="302.944" cy="81.1115" r="9.99042" fill="#787878" fill-opacity="0.6"/>
<circle cx="317.692" cy="88.7228" r="9.99042" fill="#B9B9B9" fill-opacity="0.6"/>
<circle cx="317.692" cy="88.7228" r="9.99042" fill="#B9B9B9" fill-opacity="0.6"/>
<circle cx="320.784" cy="78.7326" r="9.99042" fill="#C6C6C6" fill-opacity="0.6"/>
<circle cx="209.054" cy="58.551" r="9.99042" fill="#D9D9D9" fill-opacity="0.6"/>
<circle cx="287.069" cy="68.9719" r="9.99042" fill="#A5A5A5" fill-opacity="0.6"/>
<circle cx="285.201" cy="69.3937" r="9.99042" fill="#A5A5A5" fill-opacity="0.6"/>
<circle cx="288.432" cy="68.4221" r="9.99042" fill="#B9B9B9" fill-opacity="0.6"/>
<circle cx="288.432" cy="68.4221" r="9.99042" fill="#B9B9B9" fill-opacity="0.6"/>
<circle cx="221.195" cy="50.1457" r="9.99042" fill="#C6C6C6" fill-opacity="0.6"/>
<circle cx="325.92" cy="93.9992" r="9.99042" fill="#D9D9D9" fill-opacity="0.6"/>
<circle cx="274.424" cy="60.4182" r="9.99042" fill="#A5A5A5" fill-opacity="0.6"/>
<circle cx="310.221" cy="98.9953" r="9.99042" fill="#494949" fill-opacity="0.6"/>
<circle cx="310.221" cy="98.9953" r="9.99042" fill="#494949" fill-opacity="0.6"/>
<circle cx="324.852" cy="94.5695" r="9.99042" fill="#4A4A4A" fill-opacity="0.6"/>
<circle cx="234.846" cy="85.4078" r="9.99042" transform="rotate(-8.58445 234.846 85.4078)" fill="#838383" fill-opacity="0.6"/>
<circle cx="212.806" cy="70.7906" r="9.99042" transform="rotate(-8.58445 212.806 70.7906)" fill="#838383" fill-opacity="0.6"/>
<circle cx="229.984" cy="71.9752" r="9.99042" transform="rotate(-8.58445 229.984 71.9752)" fill="#8E8E8E" fill-opacity="0.6"/>
<circle cx="247.581" cy="75.9302" r="9.99042" transform="rotate(-8.58445 247.581 75.9302)" fill="#A5A5A5" fill-opacity="0.6"/>
<circle cx="216.465" cy="82.5162" r="9.99042" transform="rotate(-8.58445 216.465 82.5162)" fill="#A5A5A5" fill-opacity="0.6"/>
<circle cx="243.504" cy="61.4341" r="9.99042" transform="rotate(-8.58445 243.504 61.4341)" fill="#515151" fill-opacity="0.6"/>
<circle cx="237.355" cy="102.029" r="9.99042" transform="rotate(-8.58445 237.355 102.029)" fill="#515151" fill-opacity="0.6"/>
<circle cx="222.389" cy="96.733" r="9.99042" transform="rotate(-8.58445 222.389 96.733)" fill="#BCBCBC" fill-opacity="0.6"/>
<circle cx="257.185" cy="43.2463" r="9.99042" fill="#838383" fill-opacity="0.6"/>
<circle cx="273.919" cy="39.3029" r="9.99042" fill="#838383" fill-opacity="0.6"/>
<circle cx="254.384" cy="29.2385" r="9.99042" fill="#8E8E8E" fill-opacity="0.6"/>
<circle cx="271.193" cy="35.7756" r="9.99042" fill="#A5A5A5" fill-opacity="0.6"/>
<circle cx="239.442" cy="37.6428" r="9.99042" fill="#A5A5A5" fill-opacity="0.6"/>
<circle cx="269.325" cy="20.8332" r="9.99042" fill="#515151" fill-opacity="0.6"/>
<circle cx="257.185" cy="60.0549" r="9.99042" fill="#515151" fill-opacity="0.6"/>
<circle cx="243.178" cy="52.5842" r="9.99042" fill="#BCBCBC" fill-opacity="0.6"/>
<circle cx="184.575" cy="90.1021" r="9.99042" transform="rotate(161.966 184.575 90.1021)" fill="#838383" fill-opacity="0.6"/>
<circle cx="276.092" cy="60.2183" r="9.99042" transform="rotate(161.966 276.092 60.2183)" fill="#838383" fill-opacity="0.6"/>
<circle cx="270.324" cy="81.7544" r="9.99042" transform="rotate(161.966 270.324 81.7544)" fill="#8E8E8E" fill-opacity="0.6"/>
<circle cx="252.317" cy="80.7418" r="9.99042" transform="rotate(161.966 252.317 80.7418)" fill="#A5A5A5" fill-opacity="0.6"/>
<ellipse cx="281.47" cy="78.205" rx="9.99042" ry="9.2639" transform="rotate(161.966 281.47 78.205)" fill="#2E2E2E" fill-opacity="0.6"/>
<circle cx="258.719" cy="94.3716" r="9.99042" transform="rotate(161.966 258.719 94.3716)" fill="#515151" fill-opacity="0.6"/>
<circle cx="206.987" cy="75.1597" r="9.99042" transform="rotate(161.966 206.987 75.1597)" fill="#515151" fill-opacity="0.6"/>
<ellipse cx="233.149" cy="61.4588" rx="7.82377" ry="7.64257" transform="rotate(161.966 233.149 61.4588)" fill="#BCBCBC" fill-opacity="0.6"/>
<circle cx="273.995" cy="107.682" r="9.99042" fill="#838383" fill-opacity="0.6"/>
<circle cx="254.384" cy="89.9387" r="9.99042" fill="#838383" fill-opacity="0.6"/>
<circle cx="271.193" cy="93.674" r="9.99042" fill="#8E8E8E" fill-opacity="0.6"/>
<circle cx="288.002" cy="94.5695" r="9.99042" fill="#A5A5A5" fill-opacity="0.6"/>
<circle cx="256.252" cy="102.078" r="9.99042" fill="#A5A5A5" fill-opacity="0.6"/>
<circle cx="194.113" cy="74.426" r="9.99042" fill="#515151" fill-opacity="0.6"/>
<circle cx="243.178" cy="92.7404" r="9.99042" fill="#515151" fill-opacity="0.6"/>
<circle cx="134.346" cy="38.006" r="9.99042" fill="#BCBCBC" fill-opacity="0.6"/>
<circle cx="212.79" cy="55.3478" r="9.99042" fill="#838383" fill-opacity="0.6"/>
<circle cx="269.325" cy="19.8996" r="9.99042" fill="#838383" fill-opacity="0.6"/>
<circle cx="286.135" cy="23.635" r="9.99042" fill="#8E8E8E" fill-opacity="0.6"/>
<circle cx="302.944" cy="30.1721" r="9.99042" fill="#A5A5A5" fill-opacity="0.6"/>
<circle cx="271.193" cy="32.0402" r="9.99042" fill="#787878" fill-opacity="0.6"/>
<ellipse cx="214.902" cy="40.0515" rx="4.20232" ry="9.80541" fill="#515151" fill-opacity="0.6"/>
<circle cx="215.591" cy="67.8889" r="9.99042" fill="#515151" fill-opacity="0.6"/>
<circle cx="53.1015" cy="85.632" r="9.99042" fill="#BCBCBC" fill-opacity="0.6"/>
<circle cx="141.388" cy="41.3801" r="9.99042" fill="#515151" fill-opacity="0.6"/>
<circle cx="54.0353" cy="59.4846" r="9.99042" fill="#515151" fill-opacity="0.6"/>
<circle cx="156.759" cy="15.5939" r="9.99042" fill="#757575" fill-opacity="0.6"/>
<circle cx="155.396" cy="41.3801" r="9.99042" fill="#757575" fill-opacity="0.6"/>
<circle cx="82.9848" cy="44.5432" r="9.99042" fill="#282828" fill-opacity="0.6"/>
<circle cx="150.727" cy="54.4543" r="9.99042" fill="#282828" fill-opacity="0.6"/>
<circle cx="96.0585" cy="30.5353" r="9.99042" fill="#282828" fill-opacity="0.6"/>
<circle cx="129.625" cy="70.0398" r="9.99042" transform="rotate(50.5934 129.625 70.0398)" fill="#A5A5A5" fill-opacity="0.6"/>
<circle cx="135.323" cy="93.158" r="9.99042" transform="rotate(50.5934 135.323 93.158)" fill="#A5A5A5" fill-opacity="0.6"/>
<circle cx="123.476" cy="23.4002" r="9.99042" transform="rotate(50.5934 123.476 23.4002)" fill="#515151" fill-opacity="0.6"/>
<circle cx="150.296" cy="89.3152" r="9.99042" transform="rotate(50.5934 150.296 89.3152)" fill="#515151" fill-opacity="0.6"/>
<circle cx="124.395" cy="82.7986" r="9.99042" transform="rotate(50.5934 124.395 82.7986)" fill="#515151" fill-opacity="0.6"/>
<circle cx="159.188" cy="100.138" r="9.99042" transform="rotate(50.5934 159.188 100.138)" fill="#757575" fill-opacity="0.6"/>
<circle cx="146.123" cy="104.831" r="9.99042" transform="rotate(50.5934 146.123 104.831)" fill="#282828" fill-opacity="0.6"/>
<circle cx="166.712" cy="84.2889" r="9.99042" transform="rotate(50.5934 166.712 84.2889)" fill="#282828" fill-opacity="0.6"/>
<circle cx="15.6634" cy="103.291" r="9.99042" transform="rotate(-174.893 15.6634 103.291)" fill="#A5A5A5" fill-opacity="0.6"/>
<circle cx="147.336" cy="109.828" r="9.99042" transform="rotate(-174.893 147.336 109.828)" fill="#A5A5A5" fill-opacity="0.6"/>
<circle cx="121.804" cy="95.3426" r="9.99042" transform="rotate(-174.893 121.804 95.3426)" fill="#515151" fill-opacity="0.6"/>
<circle cx="105.576" cy="98.5799" r="9.99042" transform="rotate(-174.893 105.576 98.5799)" fill="#757575" fill-opacity="0.6"/>
<circle cx="220.176" cy="72.4744" r="9.99042" transform="rotate(-174.893 220.176 72.4744)" fill="#282828" fill-opacity="0.6"/>
<circle cx="21.2664" cy="73.408" r="9.99042" transform="rotate(-174.893 21.2664 73.408)" fill="#282828" fill-opacity="0.6"/>
<circle cx="54.0353" cy="49.2121" r="9.99042" fill="#A5A5A5" fill-opacity="0.6"/>
<circle cx="63.8788" cy="35.7756" r="9.99042" fill="#515151" fill-opacity="0.6"/>
<path d="M100.017 45.1135C100.017 50.631 95.5444 55.1039 90.0268 55.1039C84.5092 55.1039 80.0364 50.631 80.0364 45.1135C80.0364 39.5959 84.5092 35.123 90.0268 35.123C95.5444 35.123 100.017 39.5959 100.017 45.1135Z" fill="#515151" fill-opacity="0.6"/>
<circle cx="79.7543" cy="31.1057" r="9.99042" fill="#757575" fill-opacity="0.6"/>
<circle cx="91.3893" cy="73.4924" r="9.99042" fill="#757575" fill-opacity="0.6"/>
<circle cx="96.5637" cy="29.2385" r="9.99042" fill="#282828" fill-opacity="0.6"/>
<circle cx="164.152" cy="60.4182" r="9.99042" fill="#A5A5A5" fill-opacity="0.6"/>
<circle cx="176.37" cy="39.8732" r="9.99042" fill="#A5A5A5" fill-opacity="0.6"/>
<circle cx="168.899" cy="35.2043" r="9.99042" fill="#515151" fill-opacity="0.6"/>
<circle cx="186.642" cy="31.4689" r="9.99042" fill="#515151" fill-opacity="0.6"/>
<circle cx="96.9924" cy="64.1535" r="9.99042" fill="#757575" fill-opacity="0.6"/>
<circle cx="213.724" cy="35.2043" r="9.99042" fill="#757575" fill-opacity="0.6"/>
<circle cx="181.973" cy="24.9318" r="9.99042" fill="#282828" fill-opacity="0.6"/>
<circle cx="239.289" cy="52.3762" r="9.99042" fill="#282828" fill-opacity="0.6"/>
<circle cx="155.622" cy="83.5616" r="9.99042" transform="rotate(-108.001 155.622 83.5616)" fill="#A5A5A5" fill-opacity="0.6"/>
<circle cx="105.397" cy="110.846" r="9.99042" transform="rotate(-123.521 105.397 110.846)" fill="#A5A5A5" fill-opacity="0.6"/>
<circle cx="175.436" cy="34.2701" r="9.99042" transform="rotate(61.6706 175.436 34.2701)" fill="#515151" fill-opacity="0.6"/>
<circle cx="223.918" cy="67.8889" r="9.99042" fill="#515151" fill-opacity="0.6"/>
<circle cx="202.439" cy="83.7648" r="9.99042" fill="#515151" fill-opacity="0.6"/>
<circle cx="211.856" cy="25.8654" r="9.99042" fill="#757575" fill-opacity="0.6"/>
<circle cx="237.926" cy="67.8889" r="9.99042" fill="#757575" fill-opacity="0.6"/>
<circle cx="171.546" cy="105.645" r="9.99042" fill="#282828" fill-opacity="0.6"/>
<circle cx="251.078" cy="82.8303" r="9.99042" fill="#282828" fill-opacity="0.6"/>
</svg>
