<svg width="215" height="122" viewBox="0 0 215 122" fill="none" xmlns="http://www.w3.org/2000/svg">
<circle cx="205.836" cy="71.1354" r="9.16372" fill="#D9D9D9" fill-opacity="0.6"/>
<circle cx="177.909" cy="68.737" r="9.16372" fill="#A5A5A5" fill-opacity="0.6"/>
<circle cx="191.436" cy="75.7184" r="9.16372" fill="#B9B9B9" fill-opacity="0.6"/>
<circle cx="191.436" cy="75.7184" r="9.16372" fill="#B9B9B9" fill-opacity="0.6"/>
<circle cx="194.273" cy="66.5543" r="9.16372" fill="#C6C6C6" fill-opacity="0.6"/>
<circle cx="191.275" cy="60.0006" r="9.16372" fill="#D9D9D9" fill-opacity="0.6"/>
<circle cx="163.347" cy="57.6012" r="9.16372" fill="#A5A5A5" fill-opacity="0.6"/>
<circle cx="176.874" cy="64.5827" r="9.16372" fill="#B9B9B9" fill-opacity="0.6"/>
<circle cx="176.874" cy="64.5827" r="9.16372" fill="#B9B9B9" fill-opacity="0.6"/>
<circle cx="179.711" cy="55.4186" r="9.16372" fill="#C6C6C6" fill-opacity="0.6"/>
<circle cx="198.984" cy="80.5583" r="9.16372" fill="#D9D9D9" fill-opacity="0.6"/>
<circle cx="157.351" cy="98.2477" r="9.16372" fill="#A5A5A5" fill-opacity="0.6"/>
<circle cx="184.584" cy="85.1403" r="9.16372" fill="#B9B9B9" fill-opacity="0.6"/>
<circle cx="184.584" cy="85.1403" r="9.16372" fill="#B9B9B9" fill-opacity="0.6"/>
<circle cx="140.219" cy="72.5504" r="9.16372" fill="#C6C6C6" fill-opacity="0.6"/>
<circle cx="179.622" cy="47.7096" r="9.16372" fill="#D9D9D9" fill-opacity="0.6"/>
<circle cx="148.785" cy="49.8922" r="9.16372" fill="#A5A5A5" fill-opacity="0.6"/>
<circle cx="162.313" cy="56.8737" r="9.16372" fill="#B9B9B9" fill-opacity="0.6"/>
<circle cx="162.313" cy="56.8737" r="9.16372" fill="#B9B9B9" fill-opacity="0.6"/>
<circle cx="165.149" cy="47.7096" r="9.16372" fill="#C6C6C6" fill-opacity="0.6"/>
<circle cx="165.917" cy="28.8649" r="9.16372" fill="#D9D9D9" fill-opacity="0.6"/>
<circle cx="134.224" cy="38.7565" r="9.16372" fill="#A5A5A5" fill-opacity="0.6"/>
<circle cx="102.53" cy="27.152" r="9.16372" fill="#B9B9B9" fill-opacity="0.6"/>
<circle cx="102.53" cy="27.152" r="9.16372" fill="#B9B9B9" fill-opacity="0.6"/>
<circle cx="150.587" cy="36.5739" r="9.16372" fill="#C6C6C6" fill-opacity="0.6"/>
<circle cx="169.86" cy="61.7135" r="9.16372" fill="#D9D9D9" fill-opacity="0.6"/>
<circle cx="141.933" cy="59.3141" r="9.16372" fill="#A5A5A5" fill-opacity="0.6"/>
<circle cx="155.46" cy="66.2956" r="9.16372" fill="#B9B9B9" fill-opacity="0.6"/>
<circle cx="155.46" cy="66.2956" r="9.16372" fill="#B9B9B9" fill-opacity="0.6"/>
<circle cx="117.949" cy="52.8493" r="9.16372" fill="#C6C6C6" fill-opacity="0.6"/>
<circle cx="66.5541" cy="112.809" r="9.16372" fill="#D9D9D9" fill-opacity="0.6"/>
<circle cx="147.072" cy="79.8717" r="9.16372" fill="#A5A5A5" fill-opacity="0.6"/>
<circle cx="160.6" cy="86.8532" r="9.16372" fill="#B9B9B9" fill-opacity="0.6"/>
<circle cx="160.6" cy="86.8532" r="9.16372" fill="#B9B9B9" fill-opacity="0.6"/>
<circle cx="177.052" cy="80.2594" r="9.16372" fill="#C6C6C6" fill-opacity="0.6"/>
<circle cx="110.239" cy="69.9801" r="9.16372" fill="#D9D9D9" fill-opacity="0.6"/>
<circle cx="132.51" cy="68.737" r="9.16372" fill="#A5A5A5" fill-opacity="0.6"/>
<circle cx="130.797" cy="69.1237" r="9.16372" fill="#A5A5A5" fill-opacity="0.6"/>
<circle cx="146.038" cy="75.7184" r="9.16372" fill="#B9B9B9" fill-opacity="0.6"/>
<circle cx="146.038" cy="75.7184" r="9.16372" fill="#B9B9B9" fill-opacity="0.6"/>
<circle cx="148.874" cy="66.5543" r="9.16372" fill="#C6C6C6" fill-opacity="0.6"/>
<circle cx="166.773" cy="99.1041" r="9.16372" fill="#D9D9D9" fill-opacity="0.6"/>
<circle cx="140.219" cy="89.2946" r="9.16372" fill="#A5A5A5" fill-opacity="0.6"/>
<circle cx="153.747" cy="96.276" r="9.16372" fill="#B9B9B9" fill-opacity="0.6"/>
<circle cx="153.747" cy="96.276" r="9.16372" fill="#B9B9B9" fill-opacity="0.6"/>
<circle cx="42.57" cy="101.673" r="9.16372" fill="#C6C6C6" fill-opacity="0.6"/>
<circle cx="78.0983" cy="54.9706" r="9.16372" transform="rotate(-8.58445 78.0983 54.9706)" fill="#838383" fill-opacity="0.6"/>
<circle cx="49.8312" cy="87.5204" r="9.16372" transform="rotate(-8.58445 49.8312 87.5204)" fill="#838383" fill-opacity="0.6"/>
<circle cx="80.1498" cy="71.492" r="9.16372" transform="rotate(-8.58445 80.1498 71.492)" fill="#8E8E8E" fill-opacity="0.6"/>
<circle cx="40.4089" cy="41.2655" r="9.16372" transform="rotate(-8.58445 40.4089 41.2655)" fill="#A5A5A5" fill-opacity="0.6"/>
<circle cx="67.749" cy="81.16" r="9.16372" transform="rotate(-8.58445 67.749 81.16)" fill="#A5A5A5" fill-opacity="0.6"/>
<circle cx="92.5507" cy="61.8231" r="9.16372" transform="rotate(-8.58445 92.5507 61.8231)" fill="#515151" fill-opacity="0.6"/>
<circle cx="86.9103" cy="99.0584" r="9.16372" transform="rotate(-8.58445 86.9103 99.0584)" fill="#515151" fill-opacity="0.6"/>
<circle cx="73.1828" cy="94.2001" r="9.16372" transform="rotate(-8.58445 73.1828 94.2001)" fill="#BCBCBC" fill-opacity="0.6"/>
<circle cx="105.1" cy="45.1403" r="9.16372" fill="#838383" fill-opacity="0.6"/>
<circle cx="87.112" cy="28.8649" r="9.16372" fill="#838383" fill-opacity="0.6"/>
<circle cx="51.9923" cy="22.8688" r="9.16372" fill="#8E8E8E" fill-opacity="0.6"/>
<circle cx="53.7055" cy="33.1481" r="9.16372" fill="#A5A5A5" fill-opacity="0.6"/>
<circle cx="88.8251" cy="40.0006" r="9.16372" fill="#A5A5A5" fill-opacity="0.6"/>
<circle cx="116.235" cy="24.5817" r="9.16372" fill="#515151" fill-opacity="0.6"/>
<circle cx="69.9804" cy="40.8571" r="9.16372" fill="#515151" fill-opacity="0.6"/>
<circle cx="51.1359" cy="57.9879" r="9.16372" fill="#BCBCBC" fill-opacity="0.6"/>
<circle cx="36.3912" cy="81.7895" r="9.16372" transform="rotate(161.966 36.3912 81.7895)" fill="#838383" fill-opacity="0.6"/>
<circle cx="132.873" cy="78.9457" r="9.16372" transform="rotate(161.966 132.873 78.9457)" fill="#838383" fill-opacity="0.6"/>
<circle cx="11.5503" cy="44.9565" r="9.16372" transform="rotate(161.966 11.5503 44.9565)" fill="#8E8E8E" fill-opacity="0.6"/>
<circle cx="20.9727" cy="90.3549" r="9.16372" transform="rotate(161.966 20.9727 90.3549)" fill="#A5A5A5" fill-opacity="0.6"/>
<circle cx="127.796" cy="68.8881" r="9.16372" transform="rotate(161.966 127.796 68.8881)" fill="#A5A5A5" fill-opacity="0.6"/>
<circle cx="106.506" cy="92.0346" r="9.16372" transform="rotate(161.966 106.506 92.0346)" fill="#515151" fill-opacity="0.6"/>
<circle cx="98.9209" cy="80.0766" r="9.16372" transform="rotate(161.966 98.9209 80.0766)" fill="#515151" fill-opacity="0.6"/>
<circle cx="33.8213" cy="68.9408" r="9.16372" transform="rotate(161.966 33.8213 68.9408)" fill="#BCBCBC" fill-opacity="0.6"/>
<circle cx="120.518" cy="104.244" r="9.16372" fill="#838383" fill-opacity="0.6"/>
<circle cx="102.53" cy="87.9684" r="9.16372" fill="#838383" fill-opacity="0.6"/>
<circle cx="117.949" cy="91.3952" r="9.16372" fill="#8E8E8E" fill-opacity="0.6"/>
<circle cx="133.367" cy="97.3913" r="9.16372" fill="#A5A5A5" fill-opacity="0.6"/>
<circle cx="104.243" cy="99.1041" r="9.16372" fill="#A5A5A5" fill-opacity="0.6"/>
<circle cx="69.1239" cy="92.2516" r="9.16372" fill="#515151" fill-opacity="0.6"/>
<circle cx="28.0084" cy="87.112" r="9.16372" fill="#515151" fill-opacity="0.6"/>
<circle cx="42.57" cy="39.1442" r="9.16372" fill="#BCBCBC" fill-opacity="0.6"/>
<circle cx="134.224" cy="40.0006" r="9.16372" fill="#838383" fill-opacity="0.6"/>
<circle cx="116.235" cy="23.7252" r="9.16372" fill="#838383" fill-opacity="0.6"/>
<circle cx="106.813" cy="9.16372" r="9.16372" fill="#8E8E8E" fill-opacity="0.6"/>
<circle cx="147.072" cy="33.1481" r="9.16372" fill="#A5A5A5" fill-opacity="0.6"/>
<circle cx="99.1039" cy="52.8493" r="9.16372" fill="#A5A5A5" fill-opacity="0.6"/>
<circle cx="77.6896" cy="45.1403" r="9.16372" fill="#515151" fill-opacity="0.6"/>
<circle cx="59.7016" cy="71.694" r="9.16372" fill="#515151" fill-opacity="0.6"/>
<circle cx="121.375" cy="48.5661" r="9.16372" fill="#BCBCBC" fill-opacity="0.6"/>
</svg>
