<svg width="875" height="709" viewBox="0 0 875 709" fill="none" xmlns="http://www.w3.org/2000/svg">
<path d="M476.807 634.862H571.635" stroke="#D6C4AC" stroke-width="7.42376" stroke-linecap="round" stroke-linejoin="round"/>
<path d="M477.252 691.848H572.526" stroke="#D6C4AC" stroke-width="7.42376" stroke-linecap="round" stroke-linejoin="round"/>
<path d="M189.205 37.8438V105.07M189.205 37.8438H254.65M189.205 37.8438L580.985 422.945M580.985 37.8438V103.734M580.985 37.8438H506.19M580.985 37.8438L189.205 422.945M580.985 422.945H506.19M580.985 422.945V356.61M580.985 422.945H836.977M580.985 422.945V509.315M189.205 422.945H254.65M189.205 422.945V356.61M189.205 422.945V528.459M189.205 105.07C199.704 61.5945 215.311 48.3385 254.65 37.8438M189.205 105.07V356.61M254.65 37.8438H506.19M254.65 37.8438V528.459M580.985 103.734C566.554 49.8169 546.006 43.35 506.19 37.8438M580.985 103.734V356.61M506.19 422.945C551.437 419.711 567.094 404.172 580.985 356.61M506.19 422.945H254.65M254.65 422.945C210.956 410.986 198.111 395.325 189.205 356.61" stroke="#D6C4AC" stroke-width="7.42376" stroke-linecap="round" stroke-linejoin="round"/>
<path d="M727.012 38.2881V529.793" stroke="#D6C4AC" stroke-width="7.42376" stroke-linecap="round" stroke-linejoin="round"/>
<path d="M825.402 39.624V527.123" stroke="#D6C4AC" stroke-width="7.42376" stroke-linecap="round" stroke-linejoin="round"/>
<path d="M146.466 509.76L837.423 510.197" stroke="#D6C4AC" stroke-width="7.42376" stroke-linecap="round" stroke-linejoin="round"/>
<path d="M318.314 528.013L318.314 39.1787" stroke="#D6C4AC" stroke-width="7.42376" stroke-linecap="round" stroke-linejoin="round"/>
<path d="M374.855 527.567V38.2881" stroke="#D6C4AC" stroke-width="7.42376" stroke-linecap="round" stroke-linejoin="round"/>
<path d="M387.321 527.123V39.624" stroke="#D6C4AC" stroke-width="7.42376" stroke-linecap="round" stroke-linejoin="round"/>
<path d="M443.862 528.014V37.8438" stroke="#D6C4AC" stroke-width="7.42376" stroke-linecap="round" stroke-linejoin="round"/>
<path d="M507.522 704.314L506.19 37.8438" stroke="#D6C4AC" stroke-width="7.42376" stroke-linecap="round" stroke-linejoin="round"/>
<path d="M146.911 104.624H810.71" stroke="#D6C4AC" stroke-width="7.42376" stroke-linecap="round" stroke-linejoin="round"/>
<path d="M4 165.616H837.422" stroke="#D6C4AC" stroke-width="7.42376" stroke-linecap="round" stroke-linejoin="round"/>
<path d="M5.17358 131.06H181.123" stroke="#D6C4AC" stroke-width="7.42376" stroke-linecap="round" stroke-linejoin="round"/>
<path d="M5.17358 233.224L839.203 231.061" stroke="#D6C4AC" stroke-width="7.42376" stroke-linecap="round" stroke-linejoin="round"/>
<path d="M188.314 218.15H582.32" stroke="#D6C4AC" stroke-width="7.42376" stroke-linecap="round" stroke-linejoin="round"/>
<path d="M145.13 295.616H839.203" stroke="#D6C4AC" stroke-width="7.42376" stroke-linecap="round" stroke-linejoin="round"/>
<path d="M145.13 357.944H664.683" stroke="#D6C4AC" stroke-width="7.42376" stroke-linecap="round" stroke-linejoin="round"/>
<path d="M288.04 71.6788V36.9529C305.507 35.485 314.461 37.3234 330.335 31.6104H483.93V45.4118C462.365 54.4605 452.261 61.5899 441.636 81.9185V102.398H389.547V96.6103H385.095H381.978V59.2131H377.972V96.1651L372.629 102.09H347.698V83.6994L361.499 59.2131L359.273 58.3227L344.581 83.6994C337.761 95.975 333.254 97.91 320.54 101.062V81.0281H308.52V77.9117L288.04 71.6788Z" fill="#358947"/>
<path d="M390.883 377.089H370.849C369.865 377.089 369.068 376.292 369.068 375.308V339.692C369.068 338.708 369.865 337.911 370.849 337.911H390.883C391.866 337.911 392.663 338.708 392.663 339.692V375.308C392.663 376.292 391.866 377.089 390.883 377.089Z" fill="#358947"/>
<path d="M514.204 347.706H497.732C496.748 347.706 495.951 348.503 495.951 349.486V365.069C495.951 366.052 496.748 366.849 497.732 366.849H514.204C515.188 366.849 515.985 366.052 515.985 365.069V349.486C515.985 348.503 515.188 347.706 514.204 347.706Z" fill="#358947"/>
<path d="M508.862 289.829H503.965C502.981 289.829 502.184 290.626 502.184 291.61V296.952C502.184 297.936 502.981 298.733 503.965 298.733H508.862C509.845 298.733 510.643 297.936 510.643 296.952V291.61C510.643 290.626 509.845 289.829 508.862 289.829Z" fill="#358947"/>
<path d="M262.664 347.706H246.637C245.653 347.706 244.856 348.503 244.856 349.486V364.623C244.856 365.607 245.653 366.404 246.637 366.404H262.664C263.647 366.404 264.445 365.607 264.445 364.623V349.486C264.445 348.503 263.647 347.706 262.664 347.706Z" fill="#358947"/>
<path d="M393.474 243.528H368.915C367.931 243.528 367.134 242.731 367.134 241.747V215.914C367.134 214.93 367.931 214.133 368.915 214.133H393.474C394.457 214.133 395.255 214.931 395.255 215.914V241.747C395.255 242.731 394.457 243.528 393.474 243.528Z" fill="#358947"/>
<path d="M267.524 235.959H273.349C274.332 235.959 275.13 235.162 275.13 234.179V215.914C275.13 214.93 274.332 214.133 273.349 214.133H267.524C266.541 214.133 265.744 214.93 265.744 215.914V234.179C265.744 235.162 266.541 235.959 267.524 235.959Z" fill="#358947"/>
<path d="M317.054 225.666L312.104 230.701C311.429 231.388 311.422 232.487 312.089 233.182L317.039 238.345C317.736 239.072 318.897 239.076 319.6 238.355L324.629 233.193C325.309 232.495 325.302 231.381 324.614 230.692L319.584 225.656C318.885 224.955 317.748 224.96 317.054 225.666Z" fill="#358947"/>
<path d="M322.625 355.805L319.423 353.096C318.778 352.55 317.837 352.533 317.172 353.055L313.72 355.768C312.86 356.444 312.807 357.728 313.608 358.473L317.057 361.675C317.759 362.327 318.851 362.306 319.528 361.629L322.734 358.423C323.47 357.687 323.42 356.478 322.625 355.805Z" fill="#358947"/>
<path d="M485.711 235.313V215.914C485.711 214.93 486.508 214.133 487.492 214.133H523.999C524.982 214.133 525.78 214.93 525.78 215.914V235.313C525.78 236.297 524.982 237.094 523.999 237.094H487.492C486.508 237.094 485.711 236.297 485.711 235.313Z" fill="#358947"/>
<path d="M508.417 162.501H503.965C502.981 162.501 502.184 163.298 502.184 164.281V169.179C502.184 170.162 502.981 170.96 503.965 170.96H508.417C509.4 170.96 510.197 170.162 510.197 169.179V164.281C510.197 163.298 509.4 162.501 508.417 162.501Z" fill="#358947"/>
<path d="M442.158 352.081L437.958 356.281C437.278 356.96 437.261 358.057 437.918 358.758L442.118 363.238C442.821 363.988 444.012 363.988 444.716 363.238L448.916 358.758C449.573 358.057 449.555 356.96 448.876 356.281L444.676 352.081C443.981 351.386 442.853 351.386 442.158 352.081Z" fill="#358947"/>
<path d="M369.068 302.74V296.952C369.068 295.969 369.865 295.172 370.849 295.172H390.883C391.866 295.172 392.663 295.969 392.663 296.952V302.74C392.663 303.723 391.866 304.521 390.883 304.521H370.849C369.865 304.521 369.068 303.723 369.068 302.74Z" fill="#358947"/>
<path d="M392.184 157.158H367.367C366.383 157.158 365.586 157.956 365.586 158.939V167.978C365.586 168.962 366.383 169.759 367.367 169.759H392.184C393.167 169.759 393.965 168.962 393.965 167.978V158.939C393.965 157.956 393.167 157.158 392.184 157.158Z" fill="#358947"/>
<path d="M257.767 289.829H252.424C251.441 289.829 250.643 290.626 250.643 291.61V296.952C250.643 297.936 251.441 298.733 252.424 298.733H257.767C258.75 298.733 259.547 297.936 259.547 296.952V291.61C259.547 290.626 258.75 289.829 257.767 289.829Z" fill="#358947"/>
<path d="M257.321 162.501H252.424C251.441 162.501 250.643 163.298 250.643 164.281V168.734C250.643 169.717 251.441 170.514 252.424 170.514H257.321C258.305 170.514 259.102 169.717 259.102 168.734V164.281C259.102 163.298 258.305 162.501 257.321 162.501Z" fill="#358947"/>
<path d="M387.321 113.526H374.855V102.396C375.778 100.127 377.113 99.1551 381.088 97.9443C383.998 98.7176 385.51 99.3897 387.321 102.396V113.526Z" fill="#358947"/>
<circle cx="318.759" cy="294.727" r="6.23286" fill="#358947"/>
<circle cx="444.307" cy="292.946" r="6.23286" fill="#358947"/>
<circle cx="444.307" cy="165.617" r="6.23286" fill="#358947"/>
<path d="M183.132 560.946C182.349 560.946 181.587 560.825 180.847 560.581C180.117 560.338 179.519 560.01 179.053 559.597L179.783 558.343C180.154 558.693 180.635 558.978 181.228 559.2C181.82 559.423 182.455 559.534 183.132 559.534C183.958 559.534 184.598 559.359 185.053 559.01C185.518 558.65 185.751 558.169 185.751 557.566C185.751 556.984 185.529 556.518 185.084 556.169C184.651 555.809 183.958 555.629 183.005 555.629H182.116V554.518L185.418 550.455L185.64 551.09H179.561V549.709H186.894V550.788L183.608 554.836L182.783 554.344H183.307C184.651 554.344 185.656 554.645 186.322 555.248C187 555.852 187.338 556.619 187.338 557.55C187.338 558.174 187.185 558.745 186.878 559.264C186.571 559.782 186.106 560.195 185.481 560.502C184.868 560.798 184.085 560.946 183.132 560.946ZM188.566 560.819V559.74L193.09 555.375C193.492 554.994 193.788 554.661 193.979 554.375C194.18 554.079 194.312 553.809 194.375 553.566C194.45 553.312 194.487 553.069 194.487 552.836C194.487 552.265 194.286 551.815 193.883 551.487C193.481 551.159 192.894 550.995 192.122 550.995C191.529 550.995 190.995 551.095 190.519 551.296C190.043 551.487 189.63 551.788 189.281 552.201L188.201 551.265C188.625 550.725 189.191 550.312 189.9 550.027C190.619 549.73 191.407 549.582 192.265 549.582C193.037 549.582 193.709 549.709 194.28 549.963C194.852 550.206 195.291 550.561 195.598 551.027C195.915 551.492 196.074 552.042 196.074 552.677C196.074 553.037 196.026 553.391 195.931 553.741C195.836 554.09 195.656 554.46 195.391 554.852C195.127 555.243 194.746 555.682 194.249 556.169L190.217 560.057L189.836 559.439H196.55V560.819H188.566Z" fill="#1C614F"/>
<path d="M246.171 560.946C245.388 560.946 244.626 560.825 243.886 560.581C243.156 560.338 242.558 560.01 242.092 559.597L242.822 558.343C243.193 558.693 243.674 558.978 244.267 559.2C244.859 559.423 245.494 559.534 246.171 559.534C246.997 559.534 247.637 559.359 248.092 559.01C248.557 558.65 248.79 558.169 248.79 557.566C248.79 556.984 248.568 556.518 248.123 556.169C247.69 555.809 246.997 555.629 246.044 555.629H245.155V554.518L248.457 550.455L248.679 551.09H242.6V549.709H249.933V550.788L246.647 554.836L245.822 554.344H246.346C247.69 554.344 248.695 554.645 249.361 555.248C250.039 555.852 250.377 556.619 250.377 557.55C250.377 558.174 250.224 558.745 249.917 559.264C249.61 559.782 249.144 560.195 248.52 560.502C247.907 560.798 247.124 560.946 246.171 560.946ZM256.19 560.946C255.291 560.946 254.513 560.814 253.857 560.55C253.201 560.285 252.693 559.909 252.334 559.423C251.974 558.925 251.794 558.343 251.794 557.677C251.794 557.021 251.963 556.465 252.302 556.01C252.651 555.545 253.154 555.195 253.81 554.963C254.466 554.719 255.259 554.598 256.19 554.598C257.122 554.598 257.915 554.719 258.571 554.963C259.238 555.195 259.746 555.545 260.095 556.01C260.444 556.476 260.619 557.031 260.619 557.677C260.619 558.343 260.439 558.925 260.079 559.423C259.719 559.909 259.206 560.285 258.539 560.55C257.873 560.814 257.09 560.946 256.19 560.946ZM256.19 559.661C257.079 559.661 257.772 559.481 258.27 559.121C258.778 558.751 259.031 558.253 259.031 557.629C259.031 557.015 258.778 556.534 258.27 556.185C257.772 555.825 257.079 555.645 256.19 555.645C255.312 555.645 254.624 555.825 254.127 556.185C253.63 556.534 253.381 557.015 253.381 557.629C253.381 558.253 253.63 558.751 254.127 559.121C254.624 559.481 255.312 559.661 256.19 559.661ZM256.19 555.455C255.344 555.455 254.624 555.344 254.032 555.121C253.439 554.889 252.984 554.561 252.667 554.137C252.35 553.704 252.191 553.19 252.191 552.598C252.191 551.974 252.355 551.439 252.683 550.995C253.021 550.54 253.492 550.191 254.095 549.947C254.699 549.704 255.397 549.582 256.19 549.582C256.995 549.582 257.698 549.704 258.301 549.947C258.905 550.191 259.375 550.54 259.714 550.995C260.053 551.439 260.222 551.974 260.222 552.598C260.222 553.19 260.063 553.704 259.746 554.137C259.428 554.561 258.968 554.889 258.365 555.121C257.762 555.344 257.037 555.455 256.19 555.455ZM256.19 554.439C256.963 554.439 257.566 554.28 258 553.963C258.444 553.645 258.666 553.212 258.666 552.661C258.666 552.1 258.439 551.661 257.984 551.344C257.529 551.027 256.931 550.868 256.19 550.868C255.45 550.868 254.857 551.027 254.413 551.344C253.979 551.661 253.762 552.1 253.762 552.661C253.762 553.212 253.974 553.645 254.397 553.963C254.831 554.28 255.429 554.439 256.19 554.439Z" fill="#1C614F"/>
<path d="M307.725 558.089V556.978L313.407 549.709H315.121L309.487 556.978L308.677 556.724H317.55V558.089H307.725ZM313.899 560.819V558.089L313.947 556.724V554.312H315.439V560.819H313.899ZM318.342 558.089V556.978L324.024 549.709H325.739L320.104 556.978L319.295 556.724H328.167V558.089H318.342ZM324.516 560.819V558.089L324.564 556.724V554.312H326.056V560.819H324.516Z" fill="#1C614F"/>
<path d="M364.505 560.946C363.722 560.946 362.961 560.825 362.22 560.581C361.49 560.338 360.892 560.01 360.426 559.597L361.156 558.343C361.527 558.693 362.008 558.978 362.601 559.2C363.193 559.423 363.823 559.534 364.49 559.534C365.336 559.534 365.987 559.354 366.442 558.994C366.897 558.634 367.124 558.153 367.124 557.55C367.124 557.137 367.024 556.777 366.823 556.47C366.622 556.164 366.272 555.931 365.775 555.772C365.288 555.603 364.616 555.518 363.759 555.518H361.236L361.823 549.709H368.092V551.09H362.41L363.236 550.312L362.775 554.899L361.95 554.137H364.093C365.204 554.137 366.098 554.28 366.775 554.566C367.452 554.852 367.944 555.248 368.251 555.756C368.558 556.254 368.711 556.83 368.711 557.486C368.711 558.121 368.558 558.703 368.251 559.232C367.944 559.751 367.479 560.169 366.854 560.486C366.241 560.793 365.458 560.946 364.505 560.946ZM371.905 560.819V550.344L372.588 551.09H369.397V549.709H373.476V560.819H371.905Z" fill="#1C614F"/>
<path d="M391.678 560.946C390.895 560.946 390.133 560.825 389.393 560.581C388.663 560.338 388.065 560.01 387.599 559.597L388.329 558.343C388.7 558.693 389.181 558.978 389.774 559.2C390.366 559.423 390.996 559.534 391.662 559.534C392.509 559.534 393.16 559.354 393.615 558.994C394.07 558.634 394.297 558.153 394.297 557.55C394.297 557.137 394.196 556.777 393.995 556.47C393.794 556.164 393.445 555.931 392.948 555.772C392.461 555.603 391.789 555.518 390.932 555.518H388.409L388.996 549.709H395.265V551.09H389.583L390.408 550.312L389.948 554.899L389.123 554.137H391.266C392.377 554.137 393.271 554.28 393.948 554.566C394.625 554.852 395.117 555.248 395.424 555.756C395.731 556.254 395.884 556.83 395.884 557.486C395.884 558.121 395.731 558.703 395.424 559.232C395.117 559.751 394.651 560.169 394.027 560.486C393.413 560.793 392.63 560.946 391.678 560.946ZM400.524 560.946C399.741 560.946 398.979 560.825 398.239 560.581C397.508 560.338 396.911 560.01 396.445 559.597L397.175 558.343C397.545 558.693 398.027 558.978 398.619 559.2C399.212 559.423 399.847 559.534 400.524 559.534C401.349 559.534 401.99 559.359 402.445 559.01C402.91 558.65 403.143 558.169 403.143 557.566C403.143 556.984 402.921 556.518 402.476 556.169C402.042 555.809 401.349 555.629 400.397 555.629H399.508V554.518L402.81 550.455L403.032 551.09H396.953V549.709H404.286V550.788L401 554.836L400.175 554.344H400.699C402.042 554.344 403.048 554.645 403.714 555.248C404.391 555.852 404.73 556.619 404.73 557.55C404.73 558.174 404.577 558.745 404.27 559.264C403.963 559.782 403.497 560.195 402.873 560.502C402.259 560.798 401.476 560.946 400.524 560.946Z" fill="#1C614F"/>
<path d="M434.094 560.946C433.11 560.946 432.269 560.729 431.57 560.296C430.872 559.862 430.338 559.237 429.967 558.423C429.608 557.597 429.428 556.592 429.428 555.407C429.428 554.148 429.65 553.085 430.094 552.217C430.539 551.349 431.158 550.693 431.951 550.249C432.745 549.804 433.655 549.582 434.681 549.582C435.21 549.582 435.713 549.635 436.189 549.741C436.676 549.847 437.094 550.011 437.443 550.233L436.84 551.471C436.554 551.27 436.226 551.132 435.856 551.058C435.496 550.984 435.115 550.947 434.713 550.947C433.581 550.947 432.681 551.302 432.015 552.011C431.348 552.709 431.015 553.751 431.015 555.137C431.015 555.359 431.025 555.624 431.047 555.931C431.068 556.238 431.121 556.539 431.205 556.836L430.666 556.296C430.824 555.809 431.073 555.402 431.412 555.074C431.761 554.735 432.174 554.487 432.65 554.328C433.136 554.159 433.66 554.074 434.221 554.074C434.962 554.074 435.618 554.211 436.189 554.487C436.76 554.762 437.21 555.153 437.538 555.661C437.866 556.158 438.03 556.751 438.03 557.439C438.03 558.148 437.856 558.767 437.506 559.296C437.157 559.825 436.686 560.232 436.094 560.518C435.501 560.803 434.835 560.946 434.094 560.946ZM434.031 559.661C434.517 559.661 434.94 559.571 435.3 559.391C435.671 559.211 435.962 558.962 436.173 558.645C436.385 558.317 436.491 557.936 436.491 557.502C436.491 556.846 436.263 556.328 435.808 555.947C435.353 555.555 434.734 555.359 433.951 555.359C433.443 555.359 432.999 555.455 432.618 555.645C432.237 555.836 431.935 556.095 431.713 556.423C431.502 556.74 431.396 557.105 431.396 557.518C431.396 557.899 431.496 558.253 431.697 558.581C431.898 558.899 432.195 559.158 432.586 559.359C432.978 559.56 433.459 559.661 434.031 559.661ZM443.763 560.946C442.895 560.946 442.117 560.724 441.43 560.28C440.753 559.835 440.213 559.19 439.811 558.343C439.419 557.497 439.224 556.47 439.224 555.264C439.224 554.058 439.419 553.032 439.811 552.185C440.213 551.339 440.753 550.693 441.43 550.249C442.117 549.804 442.895 549.582 443.763 549.582C444.62 549.582 445.392 549.804 446.08 550.249C446.768 550.693 447.308 551.339 447.699 552.185C448.091 553.032 448.286 554.058 448.286 555.264C448.286 556.47 448.091 557.497 447.699 558.343C447.308 559.19 446.768 559.835 446.08 560.28C445.392 560.724 444.62 560.946 443.763 560.946ZM443.763 559.534C444.345 559.534 444.853 559.375 445.287 559.058C445.731 558.74 446.075 558.264 446.318 557.629C446.572 556.994 446.699 556.206 446.699 555.264C446.699 554.323 446.572 553.534 446.318 552.899C446.075 552.265 445.731 551.788 445.287 551.471C444.853 551.153 444.345 550.995 443.763 550.995C443.181 550.995 442.668 551.153 442.223 551.471C441.779 551.788 441.43 552.265 441.176 552.899C440.932 553.534 440.811 554.323 440.811 555.264C440.811 556.206 440.932 556.994 441.176 557.629C441.43 558.264 441.779 558.74 442.223 559.058C442.668 559.375 443.181 559.534 443.763 559.534Z" fill="#1C614F"/>
<path d="M502.325 560.946C501.341 560.946 500.5 560.729 499.801 560.296C499.103 559.862 498.569 559.237 498.198 558.423C497.839 557.597 497.659 556.592 497.659 555.407C497.659 554.148 497.881 553.085 498.325 552.217C498.77 551.349 499.389 550.693 500.182 550.249C500.976 549.804 501.886 549.582 502.912 549.582C503.441 549.582 503.944 549.635 504.42 549.741C504.907 549.847 505.325 550.011 505.674 550.233L505.071 551.471C504.785 551.27 504.457 551.132 504.087 551.058C503.727 550.984 503.346 550.947 502.944 550.947C501.812 550.947 500.912 551.302 500.246 552.011C499.579 552.709 499.246 553.751 499.246 555.137C499.246 555.359 499.256 555.624 499.278 555.931C499.299 556.238 499.352 556.539 499.436 556.836L498.897 556.296C499.055 555.809 499.304 555.402 499.643 555.074C499.992 554.735 500.404 554.487 500.881 554.328C501.367 554.159 501.891 554.074 502.452 554.074C503.193 554.074 503.849 554.211 504.42 554.487C504.991 554.762 505.441 555.153 505.769 555.661C506.097 556.158 506.261 556.751 506.261 557.439C506.261 558.148 506.087 558.767 505.737 559.296C505.388 559.825 504.917 560.232 504.325 560.518C503.732 560.803 503.066 560.946 502.325 560.946ZM502.261 559.661C502.748 559.661 503.171 559.571 503.531 559.391C503.902 559.211 504.193 558.962 504.404 558.645C504.616 558.317 504.722 557.936 504.722 557.502C504.722 556.846 504.494 556.328 504.039 555.947C503.584 555.555 502.965 555.359 502.182 555.359C501.674 555.359 501.23 555.455 500.849 555.645C500.468 555.836 500.166 556.095 499.944 556.423C499.733 556.74 499.627 557.105 499.627 557.518C499.627 557.899 499.727 558.253 499.928 558.581C500.129 558.899 500.426 559.158 500.817 559.359C501.209 559.56 501.69 559.661 502.261 559.661ZM512.121 560.946C511.137 560.946 510.295 560.729 509.597 560.296C508.899 559.862 508.364 559.237 507.994 558.423C507.634 557.597 507.454 556.592 507.454 555.407C507.454 554.148 507.677 553.085 508.121 552.217C508.565 551.349 509.184 550.693 509.978 550.249C510.772 549.804 511.682 549.582 512.708 549.582C513.237 549.582 513.74 549.635 514.216 549.741C514.703 549.847 515.12 550.011 515.47 550.233L514.867 551.471C514.581 551.27 514.253 551.132 513.882 551.058C513.523 550.984 513.142 550.947 512.74 550.947C511.608 550.947 510.708 551.302 510.042 552.011C509.375 552.709 509.042 553.751 509.042 555.137C509.042 555.359 509.052 555.624 509.073 555.931C509.095 556.238 509.147 556.539 509.232 556.836L508.692 556.296C508.851 555.809 509.1 555.402 509.438 555.074C509.788 554.735 510.2 554.487 510.676 554.328C511.163 554.159 511.687 554.074 512.248 554.074C512.988 554.074 513.644 554.211 514.216 554.487C514.787 554.762 515.237 555.153 515.565 555.661C515.893 556.158 516.057 556.751 516.057 557.439C516.057 558.148 515.882 558.767 515.533 559.296C515.184 559.825 514.713 560.232 514.121 560.518C513.528 560.803 512.861 560.946 512.121 560.946ZM512.057 559.661C512.544 559.661 512.967 559.571 513.327 559.391C513.697 559.211 513.988 558.962 514.2 558.645C514.412 558.317 514.517 557.936 514.517 557.502C514.517 556.846 514.29 556.328 513.835 555.947C513.38 555.555 512.761 555.359 511.978 555.359C511.47 555.359 511.026 555.455 510.645 555.645C510.264 555.836 509.962 556.095 509.74 556.423C509.528 556.74 509.423 557.105 509.423 557.518C509.423 557.899 509.523 558.253 509.724 558.581C509.925 558.899 510.221 559.158 510.613 559.359C511.004 559.56 511.486 559.661 512.057 559.661Z" fill="#1C614F"/>
<path d="M584.532 636.506V626.031L585.214 626.777H582.024V625.396H586.103V636.506H584.532ZM593.2 636.633C592.216 636.633 591.374 636.416 590.676 635.982C589.978 635.548 589.443 634.924 589.073 634.109C588.713 633.284 588.533 632.279 588.533 631.094C588.533 629.834 588.756 628.771 589.2 627.903C589.644 627.036 590.263 626.38 591.057 625.935C591.851 625.491 592.761 625.269 593.787 625.269C594.316 625.269 594.819 625.322 595.295 625.427C595.781 625.533 596.199 625.697 596.549 625.919L595.945 627.157C595.66 626.956 595.332 626.819 594.961 626.745C594.602 626.671 594.221 626.634 593.819 626.634C592.686 626.634 591.787 626.988 591.12 627.697C590.454 628.395 590.121 629.438 590.121 630.824C590.121 631.046 590.131 631.311 590.152 631.617C590.173 631.924 590.226 632.226 590.311 632.522L589.771 631.982C589.93 631.496 590.179 631.088 590.517 630.76C590.867 630.422 591.279 630.173 591.755 630.014C592.242 629.845 592.766 629.76 593.327 629.76C594.067 629.76 594.723 629.898 595.295 630.173C595.866 630.448 596.316 630.84 596.644 631.348C596.972 631.845 597.136 632.437 597.136 633.125C597.136 633.834 596.961 634.453 596.612 634.982C596.263 635.511 595.792 635.919 595.199 636.204C594.607 636.49 593.94 636.633 593.2 636.633ZM593.136 635.347C593.623 635.347 594.046 635.257 594.406 635.077C594.776 634.898 595.067 634.649 595.279 634.331C595.49 634.003 595.596 633.623 595.596 633.189C595.596 632.533 595.369 632.014 594.914 631.633C594.459 631.242 593.84 631.046 593.057 631.046C592.549 631.046 592.105 631.141 591.724 631.332C591.343 631.522 591.041 631.781 590.819 632.109C590.607 632.427 590.501 632.792 590.501 633.205C590.501 633.585 590.602 633.94 590.803 634.268C591.004 634.585 591.3 634.845 591.692 635.046C592.083 635.247 592.565 635.347 593.136 635.347ZM600.141 636.506L604.855 626.062L605.268 626.777H598.665L599.459 625.999V628.76H597.935V625.396H606.315V626.475L601.824 636.506H600.141Z" fill="#1C614F"/>
<path d="M586.412 692.602V682.126L587.095 682.872H583.905V681.491H587.984V692.602H586.412ZM592.334 692.602L597.048 682.158L597.461 682.872H590.858L591.652 682.095V684.856H590.128V681.491H598.509V682.571L594.017 692.602H592.334ZM603.172 692.729C602.389 692.729 601.627 692.607 600.887 692.363C600.157 692.12 599.559 691.792 599.093 691.379L599.823 690.126C600.194 690.475 600.675 690.76 601.268 690.983C601.86 691.205 602.495 691.316 603.172 691.316C603.998 691.316 604.638 691.141 605.093 690.792C605.558 690.432 605.791 689.951 605.791 689.348C605.791 688.766 605.569 688.3 605.125 687.951C604.691 687.591 603.998 687.412 603.045 687.412H602.157V686.301L605.458 682.237L605.68 682.872H599.601V681.491H606.934V682.571L603.648 686.618L602.823 686.126H603.347C604.691 686.126 605.696 686.427 606.363 687.031C607.04 687.634 607.378 688.401 607.378 689.332C607.378 689.956 607.225 690.528 606.918 691.046C606.611 691.565 606.146 691.977 605.521 692.284C604.908 692.58 604.125 692.729 603.172 692.729Z" fill="#1C614F"/>
<path d="M569.245 560.819L573.959 550.376L574.371 551.09H567.769L568.562 550.312V553.074H567.039V549.709H575.419V550.788L570.927 560.819H569.245ZM576.636 560.819V559.74L581.159 555.375C581.561 554.994 581.857 554.661 582.048 554.375C582.249 554.079 582.381 553.809 582.445 553.566C582.519 553.312 582.556 553.069 582.556 552.836C582.556 552.265 582.355 551.815 581.953 551.487C581.55 551.159 580.963 550.995 580.191 550.995C579.598 550.995 579.064 551.095 578.588 551.296C578.112 551.487 577.699 551.788 577.35 552.201L576.271 551.265C576.694 550.725 577.26 550.312 577.969 550.027C578.688 549.73 579.477 549.582 580.334 549.582C581.106 549.582 581.778 549.709 582.349 549.963C582.921 550.206 583.36 550.561 583.667 551.027C583.984 551.492 584.143 552.042 584.143 552.677C584.143 553.037 584.095 553.391 584 553.741C583.905 554.09 583.725 554.46 583.46 554.852C583.196 555.243 582.815 555.682 582.318 556.169L578.286 560.057L577.905 559.439H584.619V560.819H576.636Z" fill="#1C614F"/>
<path d="M592.515 410.342V399.866L593.197 400.612H590.007V399.232H594.086V410.342H592.515ZM599.913 410.469C599.13 410.469 598.368 410.347 597.627 410.104C596.897 409.86 596.299 409.532 595.834 409.12L596.564 407.866C596.934 408.215 597.416 408.501 598.008 408.723C598.601 408.945 599.236 409.056 599.913 409.056C600.738 409.056 601.378 408.882 601.833 408.532C602.299 408.173 602.532 407.691 602.532 407.088C602.532 406.506 602.309 406.041 601.865 405.691C601.431 405.332 600.738 405.152 599.786 405.152H598.897V404.041L602.198 399.978L602.421 400.612H596.342V399.232H603.674V400.311L600.389 404.358L599.564 403.866H600.087C601.431 403.866 602.436 404.168 603.103 404.771C603.78 405.374 604.119 406.141 604.119 407.072C604.119 407.697 603.965 408.268 603.659 408.786C603.352 409.305 602.886 409.718 602.262 410.024C601.648 410.321 600.865 410.469 599.913 410.469ZM607.472 410.342V399.866L608.154 400.612H604.964V399.232H609.043V410.342H607.472Z" fill="#1C614F"/>
<path d="M592.517 215.342V204.866L593.199 205.612H590.009V204.232H594.088V215.342H592.517ZM596.344 215.342V214.263L600.867 209.898C601.269 209.517 601.565 209.184 601.756 208.898C601.957 208.602 602.089 208.332 602.153 208.088C602.227 207.834 602.264 207.591 602.264 207.358C602.264 206.787 602.063 206.337 601.661 206.009C601.258 205.681 600.671 205.517 599.899 205.517C599.306 205.517 598.772 205.618 598.296 205.819C597.82 206.009 597.407 206.311 597.058 206.723L595.978 205.787C596.402 205.247 596.968 204.835 597.677 204.549C598.396 204.253 599.185 204.105 600.042 204.105C600.814 204.105 601.486 204.232 602.057 204.486C602.629 204.729 603.068 205.083 603.375 205.549C603.692 206.015 603.851 206.565 603.851 207.2C603.851 207.559 603.803 207.914 603.708 208.263C603.613 208.612 603.433 208.983 603.168 209.374C602.904 209.766 602.523 210.205 602.026 210.691L597.994 214.58L597.613 213.961H604.327V215.342H596.344Z" fill="#1C614F"/>
<path d="M861.027 165.478L865.741 155.034L866.154 155.748H859.551L860.345 154.97V157.732H858.821V154.367H867.201V155.447L862.709 165.478H861.027Z" fill="#1C614F"/>
<path d="M858.34 228.698V218.223L859.022 218.969H855.832V217.588H859.911V228.698H858.34ZM865.738 228.825C864.955 228.825 864.193 228.704 863.452 228.46C862.722 228.217 862.125 227.889 861.659 227.476L862.389 226.222C862.759 226.571 863.241 226.857 863.833 227.079C864.426 227.302 865.061 227.413 865.738 227.413C866.563 227.413 867.203 227.238 867.658 226.889C868.124 226.529 868.357 226.048 868.357 225.445C868.357 224.863 868.135 224.397 867.69 224.048C867.256 223.688 866.563 223.508 865.611 223.508H864.722V222.397L868.024 218.334L868.246 218.969H862.167V217.588H869.5V218.667L866.214 222.715L865.389 222.223H865.913C867.256 222.223 868.262 222.524 868.928 223.127C869.605 223.73 869.944 224.498 869.944 225.429C869.944 226.053 869.791 226.624 869.484 227.143C869.177 227.661 868.711 228.074 868.087 228.381C867.473 228.677 866.69 228.825 865.738 228.825Z" fill="#1C614F"/>
<path d="M855.37 291.917V281.442L856.053 282.188H852.863V280.807H856.942V291.917H855.37ZM862.975 280.68C863.98 280.68 864.826 280.897 865.514 281.331C866.213 281.764 866.742 282.394 867.101 283.219C867.461 284.034 867.641 285.034 867.641 286.219C867.641 287.478 867.419 288.542 866.974 289.409C866.53 290.277 865.916 290.933 865.133 291.377C864.35 291.822 863.435 292.044 862.388 292.044C861.869 292.044 861.366 291.991 860.88 291.885C860.404 291.779 859.986 291.615 859.626 291.393L860.229 290.155C860.525 290.346 860.853 290.483 861.213 290.568C861.583 290.642 861.97 290.679 862.372 290.679C863.493 290.679 864.387 290.33 865.054 289.631C865.721 288.923 866.054 287.875 866.054 286.489C866.054 286.267 866.043 286.002 866.022 285.695C866.001 285.388 865.953 285.087 865.879 284.791L866.403 285.33C866.255 285.817 866.006 286.23 865.657 286.568C865.319 286.896 864.906 287.145 864.419 287.314C863.943 287.473 863.419 287.552 862.848 287.552C862.118 287.552 861.467 287.415 860.896 287.14C860.324 286.865 859.875 286.478 859.547 285.981C859.219 285.473 859.054 284.875 859.054 284.187C859.054 283.468 859.224 282.849 859.562 282.331C859.912 281.801 860.382 281.394 860.975 281.108C861.578 280.823 862.245 280.68 862.975 280.68ZM863.038 281.965C862.562 281.965 862.139 282.055 861.769 282.235C861.398 282.415 861.107 282.664 860.896 282.981C860.695 283.299 860.594 283.68 860.594 284.124C860.594 284.78 860.822 285.304 861.277 285.695C861.732 286.076 862.345 286.267 863.118 286.267C863.626 286.267 864.07 286.171 864.451 285.981C864.842 285.791 865.144 285.531 865.356 285.203C865.578 284.875 865.689 284.51 865.689 284.108C865.689 283.717 865.588 283.362 865.387 283.045C865.186 282.727 864.89 282.468 864.498 282.267C864.107 282.066 863.62 281.965 863.038 281.965Z" fill="#1C614F"/>
<path d="M853.39 423.697V422.618L857.914 418.253C858.316 417.872 858.612 417.539 858.803 417.253C859.004 416.957 859.136 416.687 859.199 416.444C859.274 416.19 859.311 415.947 859.311 415.714C859.311 415.142 859.11 414.693 858.707 414.365C858.305 414.037 857.718 413.873 856.946 413.873C856.353 413.873 855.819 413.973 855.343 414.174C854.866 414.365 854.454 414.666 854.105 415.079L853.025 414.143C853.449 413.603 854.015 413.19 854.724 412.905C855.443 412.608 856.231 412.46 857.089 412.46C857.861 412.46 858.533 412.587 859.104 412.841C859.676 413.084 860.115 413.439 860.422 413.904C860.739 414.37 860.898 414.92 860.898 415.555C860.898 415.915 860.85 416.269 860.755 416.618C860.66 416.968 860.48 417.338 860.215 417.73C859.951 418.121 859.57 418.56 859.072 419.047L855.041 422.935L854.66 422.316H861.374V423.697H853.39ZM866.266 423.824C865.483 423.824 864.721 423.703 863.98 423.459C863.25 423.216 862.652 422.888 862.187 422.475L862.917 421.221C863.287 421.57 863.769 421.856 864.361 422.078C864.954 422.301 865.583 422.412 866.25 422.412C867.096 422.412 867.747 422.232 868.202 421.872C868.657 421.512 868.885 421.031 868.885 420.428C868.885 420.015 868.784 419.655 868.583 419.348C868.382 419.042 868.033 418.809 867.536 418.65C867.049 418.481 866.377 418.396 865.52 418.396H862.996L863.584 412.587H869.853V413.968H864.171L864.996 413.19L864.536 417.777L863.71 417.015H865.853C866.964 417.015 867.858 417.158 868.535 417.444C869.213 417.73 869.705 418.126 870.012 418.634C870.318 419.132 870.472 419.708 870.472 420.364C870.472 420.999 870.318 421.581 870.012 422.11C869.705 422.629 869.239 423.047 868.615 423.364C868.001 423.671 867.218 423.824 866.266 423.824Z" fill="#1C614F"/>
<path d="M852.676 510.067V499.592L853.358 500.338H850.168V498.957H854.247V510.067H852.676ZM860.074 510.194C859.291 510.194 858.529 510.073 857.788 509.829C857.058 509.586 856.46 509.258 855.995 508.845L856.725 507.591C857.095 507.941 857.577 508.226 858.169 508.448C858.762 508.671 859.397 508.782 860.074 508.782C860.899 508.782 861.539 508.607 861.994 508.258C862.46 507.898 862.693 507.417 862.693 506.814C862.693 506.232 862.47 505.766 862.026 505.417C861.592 505.057 860.899 504.877 859.947 504.877H859.058V503.766L862.359 499.703L862.581 500.338H856.503V498.957H863.835V500.036L860.55 504.084L859.725 503.592H860.248C861.592 503.592 862.597 503.893 863.264 504.496C863.941 505.1 864.28 505.867 864.28 506.798C864.28 507.422 864.126 507.993 863.819 508.512C863.513 509.03 863.047 509.443 862.423 509.75C861.809 510.046 861.026 510.194 860.074 510.194ZM867.494 510.067L872.208 499.624L872.621 500.338H866.018L866.812 499.56V502.322H865.288V498.957H873.669V500.036L869.177 510.067H867.494Z" fill="#1C614F"/>
<path d="M716.213 560.946C715.229 560.946 714.388 560.729 713.689 560.296C712.991 559.862 712.457 559.237 712.086 558.423C711.727 557.597 711.547 556.592 711.547 555.407C711.547 554.148 711.769 553.085 712.213 552.217C712.658 551.349 713.277 550.693 714.07 550.249C714.864 549.804 715.774 549.582 716.8 549.582C717.329 549.582 717.832 549.635 718.308 549.741C718.795 549.847 719.213 550.011 719.562 550.233L718.959 551.471C718.673 551.27 718.345 551.132 717.975 551.058C717.615 550.984 717.234 550.947 716.832 550.947C715.7 550.947 714.8 551.302 714.134 552.011C713.467 552.709 713.134 553.751 713.134 555.137C713.134 555.359 713.144 555.624 713.166 555.931C713.187 556.238 713.24 556.539 713.324 556.836L712.785 556.296C712.943 555.809 713.192 555.402 713.531 555.074C713.88 554.735 714.292 554.487 714.769 554.328C715.255 554.159 715.779 554.074 716.34 554.074C717.081 554.074 717.737 554.211 718.308 554.487C718.879 554.762 719.329 555.153 719.657 555.661C719.985 556.158 720.149 556.751 720.149 557.439C720.149 558.148 719.975 558.767 719.625 559.296C719.276 559.825 718.805 560.232 718.213 560.518C717.62 560.803 716.954 560.946 716.213 560.946ZM716.149 559.661C716.636 559.661 717.059 559.571 717.419 559.391C717.79 559.211 718.081 558.962 718.292 558.645C718.504 558.317 718.61 557.936 718.61 557.502C718.61 556.846 718.382 556.328 717.927 555.947C717.472 555.555 716.853 555.359 716.07 555.359C715.562 555.359 715.118 555.455 714.737 555.645C714.356 555.836 714.054 556.095 713.832 556.423C713.621 556.74 713.515 557.105 713.515 557.518C713.515 557.899 713.615 558.253 713.816 558.581C714.017 558.899 714.314 559.158 714.705 559.359C715.097 559.56 715.578 559.661 716.149 559.661ZM723.215 560.819V550.344L723.898 551.09H720.708V549.709H724.787V560.819H723.215ZM731.756 560.946C730.889 560.946 730.111 560.724 729.423 560.28C728.746 559.835 728.206 559.19 727.804 558.343C727.413 557.497 727.217 556.47 727.217 555.264C727.217 554.058 727.413 553.032 727.804 552.185C728.206 551.339 728.746 550.693 729.423 550.249C730.111 549.804 730.889 549.582 731.756 549.582C732.613 549.582 733.386 549.804 734.073 550.249C734.761 550.693 735.301 551.339 735.692 552.185C736.084 553.032 736.28 554.058 736.28 555.264C736.28 556.47 736.084 557.497 735.692 558.343C735.301 559.19 734.761 559.835 734.073 560.28C733.386 560.724 732.613 560.946 731.756 560.946ZM731.756 559.534C732.338 559.534 732.846 559.375 733.28 559.058C733.724 558.74 734.068 558.264 734.312 557.629C734.565 556.994 734.692 556.206 734.692 555.264C734.692 554.323 734.565 553.534 734.312 552.899C734.068 552.265 733.724 551.788 733.28 551.471C732.846 551.153 732.338 550.995 731.756 550.995C731.174 550.995 730.661 551.153 730.217 551.471C729.772 551.788 729.423 552.265 729.169 552.899C728.926 553.534 728.804 554.323 728.804 555.264C728.804 556.206 728.926 556.994 729.169 557.629C729.423 558.264 729.772 558.74 730.217 559.058C730.661 559.375 731.174 559.534 731.756 559.534Z" fill="#1C614F"/>
<path d="M814.612 560.946C813.628 560.946 812.786 560.729 812.088 560.296C811.39 559.862 810.855 559.237 810.485 558.423C810.125 557.597 809.945 556.592 809.945 555.407C809.945 554.148 810.168 553.085 810.612 552.217C811.056 551.349 811.675 550.693 812.469 550.249C813.263 549.804 814.172 549.582 815.199 549.582C815.728 549.582 816.231 549.635 816.707 549.741C817.193 549.847 817.611 550.011 817.961 550.233L817.357 551.471C817.072 551.27 816.744 551.132 816.373 551.058C816.014 550.984 815.633 550.947 815.231 550.947C814.098 550.947 813.199 551.302 812.532 552.011C811.866 552.709 811.533 553.751 811.533 555.137C811.533 555.359 811.543 555.624 811.564 555.931C811.585 556.238 811.638 556.539 811.723 556.836L811.183 556.296C811.342 555.809 811.591 555.402 811.929 555.074C812.278 554.735 812.691 554.487 813.167 554.328C813.654 554.159 814.178 554.074 814.739 554.074C815.479 554.074 816.135 554.211 816.707 554.487C817.278 554.762 817.728 555.153 818.056 555.661C818.384 556.158 818.548 556.751 818.548 557.439C818.548 558.148 818.373 558.767 818.024 559.296C817.675 559.825 817.204 560.232 816.611 560.518C816.019 560.803 815.352 560.946 814.612 560.946ZM814.548 559.661C815.035 559.661 815.458 559.571 815.818 559.391C816.188 559.211 816.479 558.962 816.691 558.645C816.902 558.317 817.008 557.936 817.008 557.502C817.008 556.846 816.781 556.328 816.326 555.947C815.871 555.555 815.252 555.359 814.469 555.359C813.961 555.359 813.516 555.455 813.136 555.645C812.755 555.836 812.453 556.095 812.231 556.423C812.019 556.74 811.913 557.105 811.913 557.518C811.913 557.899 812.014 558.253 812.215 558.581C812.416 558.899 812.712 559.158 813.104 559.359C813.495 559.56 813.977 559.661 814.548 559.661ZM823.138 560.946C822.355 560.946 821.593 560.825 820.852 560.581C820.122 560.338 819.524 560.01 819.059 559.597L819.789 558.343C820.159 558.693 820.641 558.978 821.233 559.2C821.826 559.423 822.46 559.534 823.138 559.534C823.963 559.534 824.603 559.359 825.058 559.01C825.524 558.65 825.756 558.169 825.756 557.566C825.756 556.984 825.534 556.518 825.09 556.169C824.656 555.809 823.963 555.629 823.011 555.629H822.122V554.518L825.423 550.455L825.645 551.09H819.567V549.709H826.899V550.788L823.614 554.836L822.788 554.344H823.312C824.656 554.344 825.661 554.645 826.328 555.248C827.005 555.852 827.344 556.619 827.344 557.55C827.344 558.174 827.19 558.745 826.883 559.264C826.577 559.782 826.111 560.195 825.487 560.502C824.873 560.798 824.09 560.946 823.138 560.946ZM830.558 560.819L835.272 550.376L835.685 551.09H829.082L829.876 550.312V553.074H828.352V549.709H836.733V550.788L832.241 560.819H830.558Z" fill="#1C614F"/>
<path d="M184.913 15.127C184.13 15.127 183.368 15.0053 182.628 14.7619C181.898 14.5186 181.3 14.1905 180.834 13.7779L181.564 12.524C181.935 12.8732 182.416 13.1589 183.009 13.3811C183.601 13.6033 184.236 13.7144 184.913 13.7144C185.739 13.7144 186.379 13.5398 186.834 13.1906C187.299 12.8309 187.532 12.3494 187.532 11.7463C187.532 11.1643 187.31 10.6988 186.865 10.3496C186.432 9.98984 185.739 9.80996 184.786 9.80996H183.897V8.69895L187.199 4.6358L187.421 5.27066H181.342V3.88983H188.675V4.9691L185.389 9.01638L184.564 8.52436H185.088C186.432 8.52436 187.437 8.82592 188.103 9.42904C188.781 10.0322 189.119 10.7993 189.119 11.7304C189.119 12.3547 188.966 12.9261 188.659 13.4446C188.352 13.9631 187.887 14.3757 187.262 14.6826C186.649 14.9788 185.866 15.127 184.913 15.127ZM190.347 15V13.9207L194.871 9.55602C195.273 9.1751 195.569 8.84179 195.76 8.5561C195.961 8.25983 196.093 7.99001 196.156 7.74664C196.231 7.4927 196.268 7.24933 196.268 7.01655C196.268 6.44517 196.067 5.99547 195.664 5.66746C195.262 5.33944 194.675 5.17543 193.903 5.17543C193.31 5.17543 192.776 5.27595 192.3 5.477C191.824 5.66746 191.411 5.96902 191.062 6.38168L189.982 5.44525C190.406 4.90561 190.972 4.49295 191.681 4.20726C192.4 3.91099 193.188 3.76286 194.046 3.76286C194.818 3.76286 195.49 3.88983 196.061 4.14378C196.633 4.38714 197.072 4.74161 197.379 5.20718C197.696 5.67275 197.855 6.22296 197.855 6.85783C197.855 7.21759 197.807 7.57206 197.712 7.92123C197.617 8.27041 197.437 8.64075 197.172 9.03225C196.908 9.42375 196.527 9.86287 196.03 10.3496L191.998 14.2382L191.617 13.6192H198.331V15H190.347Z" fill="#1C614F"/>
<path d="M247.952 15.127C247.169 15.127 246.407 15.0053 245.666 14.7619C244.936 14.5186 244.339 14.1905 243.873 13.7779L244.603 12.524C244.973 12.8732 245.455 13.1589 246.047 13.3811C246.64 13.6033 247.275 13.7144 247.952 13.7144C248.777 13.7144 249.417 13.5398 249.872 13.1906C250.338 12.8309 250.571 12.3494 250.571 11.7463C250.571 11.1643 250.349 10.6988 249.904 10.3496C249.47 9.98984 248.777 9.80996 247.825 9.80996H246.936V8.69895L250.237 4.6358L250.46 5.27066H244.381V3.88983H251.714V4.9691L248.428 9.01638L247.603 8.52436H248.127C249.47 8.52436 250.476 8.82592 251.142 9.42904C251.819 10.0322 252.158 10.7993 252.158 11.7304C252.158 12.3547 252.005 12.9261 251.698 13.4446C251.391 13.9631 250.925 14.3757 250.301 14.6826C249.687 14.9788 248.904 15.127 247.952 15.127ZM257.971 15.127C257.072 15.127 256.294 14.9947 255.638 14.7302C254.982 14.4657 254.474 14.09 254.114 13.6033C253.755 13.106 253.575 12.524 253.575 11.8574C253.575 11.2014 253.744 10.6459 254.083 10.1909C254.432 9.72531 254.934 9.37614 255.59 9.14335C256.246 8.89999 257.04 8.7783 257.971 8.7783C258.902 8.7783 259.696 8.89999 260.352 9.14335C261.019 9.37614 261.526 9.72531 261.876 10.1909C262.225 10.6565 262.399 11.212 262.399 11.8574C262.399 12.524 262.22 13.106 261.86 13.6033C261.5 14.09 260.987 14.4657 260.32 14.7302C259.654 14.9947 258.871 15.127 257.971 15.127ZM257.971 13.8414C258.86 13.8414 259.553 13.6615 260.05 13.3017C260.558 12.9314 260.812 12.4341 260.812 11.8098C260.812 11.1961 260.558 10.7146 260.05 10.3655C259.553 10.0057 258.86 9.82583 257.971 9.82583C257.093 9.82583 256.405 10.0057 255.908 10.3655C255.411 10.7146 255.162 11.1961 255.162 11.8098C255.162 12.4341 255.411 12.9314 255.908 13.3017C256.405 13.6615 257.093 13.8414 257.971 13.8414ZM257.971 9.63537C257.125 9.63537 256.405 9.52427 255.813 9.30207C255.22 9.06928 254.765 8.74127 254.448 8.31802C254.13 7.8842 253.972 7.37102 253.972 6.77847C253.972 6.15419 254.136 5.61984 254.464 5.17543C254.802 4.72045 255.273 4.37127 255.876 4.1279C256.479 3.88454 257.178 3.76286 257.971 3.76286C258.775 3.76286 259.479 3.88454 260.082 4.1279C260.685 4.37127 261.156 4.72045 261.495 5.17543C261.833 5.61984 262.003 6.15419 262.003 6.77847C262.003 7.37102 261.844 7.8842 261.526 8.31802C261.209 8.74127 260.749 9.06928 260.146 9.30207C259.543 9.52427 258.818 9.63537 257.971 9.63537ZM257.971 8.61959C258.744 8.61959 259.347 8.46087 259.781 8.14344C260.225 7.826 260.447 7.39218 260.447 6.84196C260.447 6.28116 260.22 5.84204 259.765 5.52461C259.31 5.20718 258.712 5.04846 257.971 5.04846C257.231 5.04846 256.638 5.20718 256.194 5.52461C255.76 5.84204 255.543 6.28116 255.543 6.84196C255.543 7.39218 255.754 7.826 256.178 8.14344C256.612 8.46087 257.209 8.61959 257.971 8.61959Z" fill="#1C614F"/>
<path d="M309.506 12.2701V11.1591L315.188 3.88983H316.902L311.268 11.1591L310.458 10.9051H319.331V12.2701H309.506ZM315.68 15V12.2701L315.728 10.9051V8.49261H317.22V15H315.68ZM320.123 12.2701V11.1591L325.805 3.88983H327.52L321.885 11.1591L321.076 10.9051H329.948V12.2701H320.123ZM326.297 15V12.2701L326.345 10.9051V8.49261H327.837V15H326.297Z" fill="#1C614F"/>
<path d="M366.286 15.127C365.503 15.127 364.741 15.0053 364 14.7619C363.27 14.5186 362.672 14.1905 362.207 13.7779L362.937 12.524C363.307 12.8732 363.789 13.1589 364.381 13.3811C364.974 13.6033 365.603 13.7144 366.27 13.7144C367.116 13.7144 367.767 13.5345 368.222 13.1748C368.677 12.815 368.904 12.3336 368.904 11.7304C368.904 11.3178 368.804 10.958 368.603 10.6512C368.402 10.3443 368.053 10.1115 367.555 9.95281C367.069 9.78351 366.397 9.69886 365.54 9.69886H363.016L363.603 3.88983H369.873V5.27066H364.191L365.016 4.49295L364.556 9.07987L363.73 8.31802H365.873C366.984 8.31802 367.878 8.46087 368.555 8.74656C369.232 9.03225 369.725 9.42904 370.031 9.93694C370.338 10.4342 370.492 11.0109 370.492 11.6669C370.492 12.3018 370.338 12.8838 370.031 13.4128C369.725 13.9313 369.259 14.3493 368.635 14.6667C368.021 14.9735 367.238 15.127 366.286 15.127ZM373.685 15V4.5247L374.368 5.27066H371.178V3.88983H375.257V15H373.685Z" fill="#1C614F"/>
<path d="M393.459 15.127C392.676 15.127 391.914 15.0053 391.174 14.7619C390.444 14.5186 389.846 14.1905 389.38 13.7779L390.11 12.524C390.481 12.8732 390.962 13.1589 391.555 13.3811C392.147 13.6033 392.777 13.7144 393.443 13.7144C394.29 13.7144 394.941 13.5345 395.396 13.1748C395.851 12.815 396.078 12.3336 396.078 11.7304C396.078 11.3178 395.978 10.958 395.776 10.6512C395.575 10.3443 395.226 10.1115 394.729 9.95281C394.242 9.78351 393.57 9.69886 392.713 9.69886H390.19L390.777 3.88983H397.046V5.27066H391.364L392.189 4.49295L391.729 9.07987L390.904 8.31802H393.047C394.158 8.31802 395.052 8.46087 395.729 8.74656C396.406 9.03225 396.898 9.42904 397.205 9.93694C397.512 10.4342 397.665 11.0109 397.665 11.6669C397.665 12.3018 397.512 12.8838 397.205 13.4128C396.898 13.9313 396.432 14.3493 395.808 14.6667C395.195 14.9735 394.411 15.127 393.459 15.127ZM402.305 15.127C401.522 15.127 400.76 15.0053 400.02 14.7619C399.289 14.5186 398.692 14.1905 398.226 13.7779L398.956 12.524C399.326 12.8732 399.808 13.1589 400.4 13.3811C400.993 13.6033 401.628 13.7144 402.305 13.7144C403.13 13.7144 403.771 13.5398 404.226 13.1906C404.691 12.8309 404.924 12.3494 404.924 11.7463C404.924 11.1643 404.702 10.6988 404.257 10.3496C403.823 9.98984 403.13 9.80996 402.178 9.80996H401.289V8.69895L404.591 4.6358L404.813 5.27066H398.734V3.88983H406.067V4.9691L402.781 9.01638L401.956 8.52436H402.48C403.823 8.52436 404.829 8.82592 405.495 9.42904C406.172 10.0322 406.511 10.7993 406.511 11.7304C406.511 12.3547 406.358 12.9261 406.051 13.4446C405.744 13.9631 405.278 14.3757 404.654 14.6826C404.04 14.9788 403.257 15.127 402.305 15.127Z" fill="#1C614F"/>
<path d="M435.875 15.127C434.891 15.127 434.05 14.9101 433.351 14.4762C432.653 14.0424 432.119 13.4181 431.748 12.6034C431.389 11.7781 431.209 10.7728 431.209 9.58776C431.209 8.32861 431.431 7.2652 431.875 6.39755C432.32 5.5299 432.939 4.87387 433.732 4.42947C434.526 3.98506 435.436 3.76286 436.462 3.76286C436.991 3.76286 437.494 3.81576 437.97 3.92157C438.457 4.02738 438.875 4.19139 439.224 4.41359L438.621 5.65158C438.335 5.45054 438.007 5.31299 437.637 5.23892C437.277 5.16485 436.896 5.12782 436.494 5.12782C435.362 5.12782 434.462 5.48229 433.796 6.19122C433.129 6.88957 432.796 7.93181 432.796 9.31794C432.796 9.54014 432.806 9.80467 432.828 10.1115C432.849 10.4184 432.902 10.7199 432.986 11.0162L432.447 10.4766C432.605 9.98984 432.854 9.58247 433.193 9.25445C433.542 8.91586 433.955 8.6672 434.431 8.50849C434.917 8.33919 435.441 8.25454 436.002 8.25454C436.743 8.25454 437.399 8.39209 437.97 8.6672C438.541 8.94231 438.991 9.33381 439.319 9.84171C439.647 10.339 439.811 10.9316 439.811 11.6193C439.811 12.3283 439.637 12.9473 439.287 13.4763C438.938 14.0054 438.467 14.4127 437.875 14.6984C437.282 14.9841 436.616 15.127 435.875 15.127ZM435.812 13.8414C436.298 13.8414 436.722 13.7514 437.081 13.5715C437.452 13.3917 437.743 13.143 437.954 12.8256C438.166 12.4976 438.272 12.1166 438.272 11.6828C438.272 11.0268 438.044 10.5083 437.589 10.1274C437.134 9.73589 436.515 9.54014 435.732 9.54014C435.224 9.54014 434.78 9.63537 434.399 9.82583C434.018 10.0163 433.716 10.2755 433.494 10.6035C433.283 10.921 433.177 11.286 433.177 11.6987C433.177 12.0796 433.277 12.4341 433.478 12.7621C433.679 13.0795 433.976 13.3388 434.367 13.5398C434.759 13.7408 435.24 13.8414 435.812 13.8414ZM445.544 15.127C444.676 15.127 443.898 14.9048 443.211 14.4604C442.534 14.016 441.994 13.3705 441.592 12.524C441.2 11.6775 441.005 10.6512 441.005 9.44491C441.005 8.23867 441.2 7.2123 441.592 6.36581C441.994 5.51932 442.534 4.87387 443.211 4.42947C443.898 3.98506 444.676 3.76286 445.544 3.76286C446.401 3.76286 447.173 3.98506 447.861 4.42947C448.549 4.87387 449.089 5.51932 449.48 6.36581C449.872 7.2123 450.067 8.23867 450.067 9.44491C450.067 10.6512 449.872 11.6775 449.48 12.524C449.089 13.3705 448.549 14.016 447.861 14.4604C447.173 14.9048 446.401 15.127 445.544 15.127ZM445.544 13.7144C446.126 13.7144 446.634 13.5557 447.068 13.2382C447.512 12.9208 447.856 12.4447 448.099 11.8098C448.353 11.1749 448.48 10.3866 448.48 9.44491C448.48 8.50319 448.353 7.7149 448.099 7.08003C447.856 6.44517 447.512 5.96902 447.068 5.65158C446.634 5.33415 446.126 5.17543 445.544 5.17543C444.962 5.17543 444.449 5.33415 444.004 5.65158C443.56 5.96902 443.211 6.44517 442.957 7.08003C442.713 7.7149 442.592 8.50319 442.592 9.44491C442.592 10.3866 442.713 11.1749 442.957 11.8098C443.211 12.4447 443.56 12.9208 444.004 13.2382C444.449 13.5557 444.962 13.7144 445.544 13.7144Z" fill="#1C614F"/>
<path d="M504.106 15.127C503.122 15.127 502.281 14.9101 501.582 14.4762C500.884 14.0424 500.35 13.4181 499.979 12.6034C499.62 11.7781 499.44 10.7728 499.44 9.58776C499.44 8.32861 499.662 7.2652 500.106 6.39755C500.551 5.5299 501.17 4.87387 501.963 4.42947C502.757 3.98506 503.667 3.76286 504.693 3.76286C505.222 3.76286 505.725 3.81576 506.201 3.92157C506.688 4.02738 507.106 4.19139 507.455 4.41359L506.852 5.65158C506.566 5.45054 506.238 5.31299 505.868 5.23892C505.508 5.16485 505.127 5.12782 504.725 5.12782C503.593 5.12782 502.693 5.48229 502.027 6.19122C501.36 6.88957 501.027 7.93181 501.027 9.31794C501.027 9.54014 501.037 9.80467 501.059 10.1115C501.08 10.4184 501.133 10.7199 501.217 11.0162L500.678 10.4766C500.836 9.98984 501.085 9.58247 501.424 9.25445C501.773 8.91586 502.185 8.6672 502.662 8.50849C503.148 8.33919 503.672 8.25454 504.233 8.25454C504.974 8.25454 505.63 8.39209 506.201 8.6672C506.772 8.94231 507.222 9.33381 507.55 9.84171C507.878 10.339 508.042 10.9316 508.042 11.6193C508.042 12.3283 507.868 12.9473 507.518 13.4763C507.169 14.0054 506.698 14.4127 506.106 14.6984C505.513 14.9841 504.847 15.127 504.106 15.127ZM504.042 13.8414C504.529 13.8414 504.952 13.7514 505.312 13.5715C505.683 13.3917 505.974 13.143 506.185 12.8256C506.397 12.4976 506.503 12.1166 506.503 11.6828C506.503 11.0268 506.275 10.5083 505.82 10.1274C505.365 9.73589 504.746 9.54014 503.963 9.54014C503.455 9.54014 503.011 9.63537 502.63 9.82583C502.249 10.0163 501.947 10.2755 501.725 10.6035C501.514 10.921 501.408 11.286 501.408 11.6987C501.408 12.0796 501.508 12.4341 501.709 12.7621C501.91 13.0795 502.207 13.3388 502.598 13.5398C502.99 13.7408 503.471 13.8414 504.042 13.8414ZM513.902 15.127C512.918 15.127 512.077 14.9101 511.378 14.4762C510.68 14.0424 510.145 13.4181 509.775 12.6034C509.415 11.7781 509.235 10.7728 509.235 9.58776C509.235 8.32861 509.458 7.2652 509.902 6.39755C510.346 5.5299 510.965 4.87387 511.759 4.42947C512.553 3.98506 513.463 3.76286 514.489 3.76286C515.018 3.76286 515.521 3.81576 515.997 3.92157C516.484 4.02738 516.901 4.19139 517.251 4.41359L516.648 5.65158C516.362 5.45054 516.034 5.31299 515.664 5.23892C515.304 5.16485 514.923 5.12782 514.521 5.12782C513.389 5.12782 512.489 5.48229 511.823 6.19122C511.156 6.88957 510.823 7.93181 510.823 9.31794C510.823 9.54014 510.833 9.80467 510.854 10.1115C510.876 10.4184 510.928 10.7199 511.013 11.0162L510.473 10.4766C510.632 9.98984 510.881 9.58247 511.219 9.25445C511.569 8.91586 511.981 8.6672 512.457 8.50849C512.944 8.33919 513.468 8.25454 514.029 8.25454C514.769 8.25454 515.425 8.39209 515.997 8.6672C516.568 8.94231 517.018 9.33381 517.346 9.84171C517.674 10.339 517.838 10.9316 517.838 11.6193C517.838 12.3283 517.663 12.9473 517.314 13.4763C516.965 14.0054 516.494 14.4127 515.902 14.6984C515.309 14.9841 514.642 15.127 513.902 15.127ZM513.838 13.8414C514.325 13.8414 514.748 13.7514 515.108 13.5715C515.478 13.3917 515.769 13.143 515.981 12.8256C516.193 12.4976 516.298 12.1166 516.298 11.6828C516.298 11.0268 516.071 10.5083 515.616 10.1274C515.161 9.73589 514.542 9.54014 513.759 9.54014C513.251 9.54014 512.807 9.63537 512.426 9.82583C512.045 10.0163 511.743 10.2755 511.521 10.6035C511.309 10.921 511.204 11.286 511.204 11.6987C511.204 12.0796 511.304 12.4341 511.505 12.7621C511.706 13.0795 512.002 13.3388 512.394 13.5398C512.785 13.7408 513.267 13.8414 513.838 13.8414Z" fill="#1C614F"/>
<path d="M571.026 15L575.74 4.55644L576.152 5.27066H569.55L570.343 4.49295V7.25462H568.82V3.88983H577.2V4.9691L572.708 15H571.026ZM578.417 15V13.9207L582.94 9.55602C583.342 9.1751 583.638 8.84179 583.829 8.5561C584.03 8.25983 584.162 7.99001 584.226 7.74664C584.3 7.4927 584.337 7.24933 584.337 7.01655C584.337 6.44517 584.136 5.99547 583.734 5.66746C583.331 5.33944 582.744 5.17543 581.972 5.17543C581.379 5.17543 580.845 5.27595 580.369 5.477C579.893 5.66746 579.48 5.96902 579.131 6.38168L578.052 5.44525C578.475 4.90561 579.041 4.49295 579.75 4.20726C580.469 3.91099 581.258 3.76286 582.115 3.76286C582.887 3.76286 583.559 3.88983 584.13 4.14378C584.702 4.38714 585.141 4.74161 585.448 5.20718C585.765 5.67275 585.924 6.22296 585.924 6.85783C585.924 7.21759 585.876 7.57206 585.781 7.92123C585.686 8.27041 585.506 8.64075 585.241 9.03225C584.977 9.42375 584.596 9.86287 584.099 10.3496L580.067 14.2382L579.686 13.6192H586.4V15H578.417Z" fill="#1C614F"/>
<path d="M717.994 15.127C717.01 15.127 716.169 14.9101 715.471 14.4762C714.772 14.0424 714.238 13.4181 713.868 12.6034C713.508 11.7781 713.328 10.7728 713.328 9.58776C713.328 8.32861 713.55 7.2652 713.995 6.39755C714.439 5.5299 715.058 4.87387 715.852 4.42947C716.645 3.98506 717.555 3.76286 718.581 3.76286C719.111 3.76286 719.613 3.81576 720.089 3.92157C720.576 4.02738 720.994 4.19139 721.343 4.41359L720.74 5.65158C720.454 5.45054 720.126 5.31299 719.756 5.23892C719.396 5.16485 719.015 5.12782 718.613 5.12782C717.481 5.12782 716.582 5.48229 715.915 6.19122C715.248 6.88957 714.915 7.93181 714.915 9.31794C714.915 9.54014 714.926 9.80467 714.947 10.1115C714.968 10.4184 715.021 10.7199 715.106 11.0162L714.566 10.4766C714.725 9.98984 714.973 9.58247 715.312 9.25445C715.661 8.91586 716.074 8.6672 716.55 8.50849C717.037 8.33919 717.56 8.25454 718.121 8.25454C718.862 8.25454 719.518 8.39209 720.089 8.6672C720.661 8.94231 721.11 9.33381 721.438 9.84171C721.766 10.339 721.93 10.9316 721.93 11.6193C721.93 12.3283 721.756 12.9473 721.407 13.4763C721.057 14.0054 720.587 14.4127 719.994 14.6984C719.402 14.9841 718.735 15.127 717.994 15.127ZM717.931 13.8414C718.417 13.8414 718.841 13.7514 719.2 13.5715C719.571 13.3917 719.862 13.143 720.073 12.8256C720.285 12.4976 720.391 12.1166 720.391 11.6828C720.391 11.0268 720.163 10.5083 719.708 10.1274C719.253 9.73589 718.634 9.54014 717.851 9.54014C717.343 9.54014 716.899 9.63537 716.518 9.82583C716.137 10.0163 715.836 10.2755 715.613 10.6035C715.402 10.921 715.296 11.286 715.296 11.6987C715.296 12.0796 715.397 12.4341 715.598 12.7621C715.799 13.0795 716.095 13.3388 716.486 13.5398C716.878 13.7408 717.359 13.8414 717.931 13.8414ZM724.997 15V4.5247L725.679 5.27066H722.489V3.88983H726.568V15H724.997ZM733.537 15.127C732.67 15.127 731.892 14.9048 731.204 14.4604C730.527 14.016 729.987 13.3705 729.585 12.524C729.194 11.6775 728.998 10.6512 728.998 9.44491C728.998 8.23867 729.194 7.2123 729.585 6.36581C729.987 5.51932 730.527 4.87387 731.204 4.42947C731.892 3.98506 732.67 3.76286 733.537 3.76286C734.394 3.76286 735.167 3.98506 735.855 4.42947C736.542 4.87387 737.082 5.51932 737.474 6.36581C737.865 7.2123 738.061 8.23867 738.061 9.44491C738.061 10.6512 737.865 11.6775 737.474 12.524C737.082 13.3705 736.542 14.016 735.855 14.4604C735.167 14.9048 734.394 15.127 733.537 15.127ZM733.537 13.7144C734.119 13.7144 734.627 13.5557 735.061 13.2382C735.506 12.9208 735.849 12.4447 736.093 11.8098C736.347 11.1749 736.474 10.3866 736.474 9.44491C736.474 8.50319 736.347 7.7149 736.093 7.08003C735.849 6.44517 735.506 5.96902 735.061 5.65158C734.627 5.33415 734.119 5.17543 733.537 5.17543C732.955 5.17543 732.442 5.33415 731.998 5.65158C731.553 5.96902 731.204 6.44517 730.95 7.08003C730.707 7.7149 730.585 8.50319 730.585 9.44491C730.585 10.3866 730.707 11.1749 730.95 11.8098C731.204 12.4447 731.553 12.9208 731.998 13.2382C732.442 13.5557 732.955 13.7144 733.537 13.7144Z" fill="#1C614F"/>
<path d="M816.392 15.127C815.408 15.127 814.567 14.9101 813.869 14.4762C813.17 14.0424 812.636 13.4181 812.265 12.6034C811.906 11.7781 811.726 10.7728 811.726 9.58776C811.726 8.32861 811.948 7.2652 812.392 6.39755C812.837 5.5299 813.456 4.87387 814.249 4.42947C815.043 3.98506 815.953 3.76286 816.979 3.76286C817.508 3.76286 818.011 3.81576 818.487 3.92157C818.974 4.02738 819.392 4.19139 819.741 4.41359L819.138 5.65158C818.852 5.45054 818.524 5.31299 818.154 5.23892C817.794 5.16485 817.413 5.12782 817.011 5.12782C815.879 5.12782 814.98 5.48229 814.313 6.19122C813.646 6.88957 813.313 7.93181 813.313 9.31794C813.313 9.54014 813.324 9.80467 813.345 10.1115C813.366 10.4184 813.419 10.7199 813.503 11.0162L812.964 10.4766C813.123 9.98984 813.371 9.58247 813.71 9.25445C814.059 8.91586 814.472 8.6672 814.948 8.50849C815.435 8.33919 815.958 8.25454 816.519 8.25454C817.26 8.25454 817.916 8.39209 818.487 8.6672C819.059 8.94231 819.508 9.33381 819.836 9.84171C820.164 10.339 820.328 10.9316 820.328 11.6193C820.328 12.3283 820.154 12.9473 819.805 13.4763C819.455 14.0054 818.984 14.4127 818.392 14.6984C817.799 14.9841 817.133 15.127 816.392 15.127ZM816.329 13.8414C816.815 13.8414 817.239 13.7514 817.598 13.5715C817.969 13.3917 818.26 13.143 818.471 12.8256C818.683 12.4976 818.789 12.1166 818.789 11.6828C818.789 11.0268 818.561 10.5083 818.106 10.1274C817.651 9.73589 817.032 9.54014 816.249 9.54014C815.741 9.54014 815.297 9.63537 814.916 9.82583C814.535 10.0163 814.234 10.2755 814.011 10.6035C813.8 10.921 813.694 11.286 813.694 11.6987C813.694 12.0796 813.794 12.4341 813.996 12.7621C814.197 13.0795 814.493 13.3388 814.884 13.5398C815.276 13.7408 815.757 13.8414 816.329 13.8414ZM824.918 15.127C824.135 15.127 823.373 15.0053 822.633 14.7619C821.903 14.5186 821.305 14.1905 820.839 13.7779L821.569 12.524C821.94 12.8732 822.421 13.1589 823.014 13.3811C823.606 13.6033 824.241 13.7144 824.918 13.7144C825.744 13.7144 826.384 13.5398 826.839 13.1906C827.304 12.8309 827.537 12.3494 827.537 11.7463C827.537 11.1643 827.315 10.6988 826.87 10.3496C826.437 9.98984 825.744 9.80996 824.791 9.80996H823.902V8.69895L827.204 4.6358L827.426 5.27066H821.347V3.88983H828.68V4.9691L825.394 9.01638L824.569 8.52436H825.093C826.437 8.52436 827.442 8.82592 828.108 9.42904C828.786 10.0322 829.124 10.7993 829.124 11.7304C829.124 12.3547 828.971 12.9261 828.664 13.4446C828.357 13.9631 827.891 14.3757 827.267 14.6826C826.653 14.9788 825.87 15.127 824.918 15.127ZM832.339 15L837.053 4.55644L837.465 5.27066H830.863L831.656 4.49295V7.25462H830.133V3.88983H838.513V4.9691L834.021 15H832.339Z" fill="#1C614F"/>
</svg>
