<svg width="1145" height="919" viewBox="0 0 1145 919" fill="none" xmlns="http://www.w3.org/2000/svg">
<path d="M647.699 818.739H776.401" stroke="#D6C4AC" stroke-width="10.0756" stroke-linecap="round" stroke-linejoin="round"/>
<path d="M648.303 896.081H777.609" stroke="#D6C4AC" stroke-width="10.0756" stroke-linecap="round" stroke-linejoin="round"/>
<path d="M257.362 8.45898V99.6986M257.362 8.45898H346.185M257.362 8.45898L789.089 531.123M789.089 8.45898V97.8859M789.089 8.45898H687.578M789.089 8.45898L257.362 531.123M789.089 531.123H687.578M789.089 531.123V441.092M789.089 531.123H1136.52M789.089 531.123V648.345M257.362 531.123H346.185M257.362 531.123V441.092M257.362 531.123V674.327M257.362 99.6986C271.612 40.6938 292.793 22.7026 346.185 8.45898M257.362 99.6986V441.092M346.185 8.45898H687.578M346.185 8.45898V674.327M789.089 97.8859C769.503 24.7091 741.615 15.9322 687.578 8.45898M789.089 97.8859V441.092M687.578 531.123C748.987 526.732 770.237 505.643 789.089 441.092M687.578 531.123H346.185M346.185 531.123C286.883 514.891 269.449 493.637 257.362 441.092" stroke="#D6C4AC" stroke-width="10.0756" stroke-linecap="round" stroke-linejoin="round"/>
<path d="M987.279 9.06348V676.14" stroke="#D6C4AC" stroke-width="10.0756" stroke-linecap="round" stroke-linejoin="round"/>
<path d="M1120.81 10.876V672.514" stroke="#D6C4AC" stroke-width="10.0756" stroke-linecap="round" stroke-linejoin="round"/>
<path d="M199.355 648.949L1137.13 649.542" stroke="#D6C4AC" stroke-width="10.0756" stroke-linecap="round" stroke-linejoin="round"/>
<path d="M432.591 673.722L432.591 10.2715" stroke="#D6C4AC" stroke-width="10.0756" stroke-linecap="round" stroke-linejoin="round"/>
<path d="M509.329 673.118V9.06348" stroke="#D6C4AC" stroke-width="10.0756" stroke-linecap="round" stroke-linejoin="round"/>
<path d="M526.247 672.514V10.876" stroke="#D6C4AC" stroke-width="10.0756" stroke-linecap="round" stroke-linejoin="round"/>
<path d="M602.985 673.722V8.45898" stroke="#D6C4AC" stroke-width="10.0756" stroke-linecap="round" stroke-linejoin="round"/>
<path d="M689.386 913L687.578 8.45898" stroke="#D6C4AC" stroke-width="10.0756" stroke-linecap="round" stroke-linejoin="round"/>
<path d="M199.96 99.0947H1100.88" stroke="#D6C4AC" stroke-width="10.0756" stroke-linecap="round" stroke-linejoin="round"/>
<path d="M6 181.874H1137.13" stroke="#D6C4AC" stroke-width="10.0756" stroke-linecap="round" stroke-linejoin="round"/>
<path d="M7.59277 134.974H246.393" stroke="#D6C4AC" stroke-width="10.0756" stroke-linecap="round" stroke-linejoin="round"/>
<path d="M7.59277 273.631L1139.55 270.696" stroke="#D6C4AC" stroke-width="10.0756" stroke-linecap="round" stroke-linejoin="round"/>
<path d="M256.153 253.175H790.902" stroke="#D6C4AC" stroke-width="10.0756" stroke-linecap="round" stroke-linejoin="round"/>
<path d="M197.543 358.312H1139.55" stroke="#D6C4AC" stroke-width="10.0756" stroke-linecap="round" stroke-linejoin="round"/>
<path d="M197.543 442.905H902.686" stroke="#D6C4AC" stroke-width="10.0756" stroke-linecap="round" stroke-linejoin="round"/>
<path d="M391.502 54.3814V7.25096C415.208 5.25865 427.36 7.75378 448.904 0H657.366V18.7314C628.098 31.0125 614.384 40.6886 599.963 68.2788V96.0736H529.268V88.2185H523.225H518.996V37.4627H513.558V87.6143L506.307 95.6553H472.47V70.6957L491.201 37.4627L488.18 36.2543L468.24 70.6957C458.983 87.3563 452.867 89.9826 435.611 94.2609V67.0703H419.297V62.8407L391.502 54.3814Z" fill="#358947"/>
<path d="M531.081 468.886H503.89C502.555 468.886 501.473 467.804 501.473 466.469V418.13C501.473 416.795 502.555 415.713 503.89 415.713H531.081C532.416 415.713 533.498 416.795 533.498 418.13V466.469C533.498 467.804 532.416 468.886 531.081 468.886Z" fill="#358947"/>
<path d="M698.454 429.006H676.097C674.763 429.006 673.68 430.089 673.68 431.423V452.572C673.68 453.906 674.763 454.989 676.097 454.989H698.454C699.789 454.989 700.871 453.906 700.871 452.572V431.423C700.871 430.089 699.789 429.006 698.454 429.006Z" fill="#358947"/>
<path d="M691.203 350.456H684.557C683.222 350.456 682.14 351.538 682.14 352.873V360.124C682.14 361.458 683.222 362.54 684.557 362.54H691.203C692.538 362.54 693.62 361.458 693.62 360.124V352.873C693.62 351.538 692.538 350.456 691.203 350.456Z" fill="#358947"/>
<path d="M357.061 429.006H335.309C333.974 429.006 332.892 430.089 332.892 431.423V451.967C332.892 453.302 333.974 454.384 335.309 454.384H357.061C358.396 454.384 359.478 453.302 359.478 451.967V431.423C359.478 430.089 358.396 429.006 357.061 429.006Z" fill="#358947"/>
<path d="M534.598 287.615H501.265C499.931 287.615 498.849 286.533 498.849 285.198V250.138C498.849 248.803 499.931 247.721 501.265 247.721H534.598C535.932 247.721 537.014 248.803 537.014 250.138V285.198C537.014 286.533 535.932 287.615 534.598 287.615Z" fill="#358947"/>
<path d="M363.658 277.343H371.563C372.898 277.343 373.98 276.261 373.98 274.926V250.138C373.98 248.803 372.898 247.721 371.563 247.721H363.658C362.323 247.721 361.241 248.803 361.241 250.138V274.926C361.241 276.261 362.323 277.343 363.658 277.343Z" fill="#358947"/>
<path d="M430.88 263.373L424.162 270.207C423.245 271.139 423.236 272.631 424.141 273.574L430.86 280.581C431.806 281.567 433.381 281.573 434.335 280.594L441.161 273.588C442.084 272.642 442.074 271.129 441.14 270.194L434.314 263.359C433.365 262.408 431.822 262.415 430.88 263.373Z" fill="#358947"/>
<path d="M438.44 439.999L434.095 436.322C433.219 435.581 431.943 435.558 431.041 436.266L426.355 439.948C425.187 440.866 425.115 442.609 426.204 443.62L430.884 447.966C431.836 448.85 433.318 448.823 434.237 447.904L438.588 443.553C439.588 442.553 439.52 440.912 438.44 439.999Z" fill="#358947"/>
<path d="M659.783 276.467V250.138C659.783 248.803 660.865 247.721 662.2 247.721H711.747C713.082 247.721 714.164 248.803 714.164 250.138V276.467C714.164 277.802 713.082 278.884 711.747 278.884H662.2C660.865 278.884 659.783 277.802 659.783 276.467Z" fill="#358947"/>
<path d="M690.599 177.644H684.557C683.222 177.644 682.14 178.726 682.14 180.061V186.708C682.14 188.043 683.222 189.125 684.557 189.125H690.599C691.934 189.125 693.016 188.043 693.016 186.708V180.061C693.016 178.726 691.934 177.644 690.599 177.644Z" fill="#358947"/>
<path d="M600.672 434.945L594.972 440.645C594.05 441.567 594.026 443.055 594.918 444.007L600.617 450.087C601.572 451.105 603.189 451.105 604.144 450.087L609.844 444.007C610.736 443.055 610.712 441.567 609.789 440.645L604.09 434.945C603.146 434.001 601.616 434.001 600.672 434.945Z" fill="#358947"/>
<path d="M501.473 367.979V360.124C501.473 358.789 502.555 357.707 503.89 357.707H531.081C532.416 357.707 533.498 358.789 533.498 360.124V367.979C533.498 369.313 532.416 370.396 531.081 370.396H503.89C502.555 370.396 501.473 369.313 501.473 367.979Z" fill="#358947"/>
<path d="M532.847 170.394H499.165C497.83 170.394 496.748 171.476 496.748 172.81V185.078C496.748 186.413 497.83 187.495 499.165 187.495H532.847C534.182 187.495 535.264 186.413 535.264 185.078V172.81C535.264 171.476 534.182 170.394 532.847 170.394Z" fill="#358947"/>
<path d="M350.414 350.456H343.164C341.829 350.456 340.747 351.538 340.747 352.873V360.124C340.747 361.458 341.829 362.54 343.164 362.54H350.414C351.749 362.54 352.831 361.458 352.831 360.124V352.873C352.831 351.538 351.749 350.456 350.414 350.456Z" fill="#358947"/>
<path d="M349.81 177.644H343.164C341.829 177.644 340.747 178.726 340.747 180.061V186.104C340.747 187.439 341.829 188.521 343.164 188.521H349.81C351.145 188.521 352.227 187.439 352.227 186.104V180.061C352.227 178.726 351.145 177.644 349.81 177.644Z" fill="#358947"/>
<path d="M526.247 111.179H509.329V96.0736C510.58 92.9937 512.393 91.6745 517.788 90.0312C521.738 91.0808 523.789 91.9929 526.247 96.0736V111.179Z" fill="#358947"/>
<circle cx="433.195" cy="357.103" r="8.4593" fill="#358947"/>
<circle cx="603.589" cy="354.687" r="8.4593" fill="#358947"/>
<circle cx="603.589" cy="181.874" r="8.4593" fill="#358947"/>
</svg>
