<svg width="49" height="56" viewBox="0 0 49 56" fill="none" xmlns="http://www.w3.org/2000/svg">
<g filter="url(#filter0_d_413_817)">
<path d="M29.0284 0C6.07014 -0.000431158 0.330589 18.1013 6.07014 48.124C33.5178 42.2668 46.1164 33.5991 44.9226 15.8937C43.5981 8.38816 37.8585 0.882579 29.0284 0Z" fill="#FA7300"/>
</g>
<circle r="14.1282" transform="matrix(-1 0 0 1 24.6907 20.3098)" fill="white"/>
<g clip-path="url(#clip0_413_817)">
<path d="M19.4479 18.0276L21.0116 13.7229C21.2783 12.9963 21.9682 12.5088 22.7408 12.5088H25.1323V14.3484H22.7408L21.3979 18.0276H25.8221L26.1533 17.1078H25.1323V15.2682H29.7313V17.1078H28.1217L26.4476 21.7068H27.0639C27.4686 19.6557 29.1886 18.138 31.341 18.0368C33.9164 17.908 36.1699 20.0512 36.1699 22.6266C36.1699 25.2021 34.1464 27.2256 31.5709 27.2256C29.3082 27.2256 27.4778 25.6712 27.0639 23.5464H23.2007C22.796 25.5976 21.076 27.1152 18.9236 27.2164C16.3482 27.336 14.0947 25.2021 14.0947 22.6174C14.0947 20.042 16.1182 18.0184 18.6937 18.0184H19.4479V18.0276ZM28.9771 23.5464C29.345 24.6226 30.3476 25.386 31.5709 25.386C33.1162 25.386 34.3303 24.1719 34.3303 22.6266C34.3303 21.0813 33.1162 19.8672 31.5709 19.8672C30.3476 19.8672 29.345 20.6306 28.9771 21.7068H31.5709V23.5464H28.9771ZM23.2007 21.7068H24.4884L25.1599 19.8672H22.3729C22.7776 20.4007 23.0719 21.017 23.2007 21.7068ZM18.6937 25.386C20.2389 25.386 21.4531 24.1719 21.4531 22.6266C21.4531 21.7712 21.076 21.0354 20.4873 20.5295L19.6043 22.9577L17.8751 22.3323L18.7673 19.8764C18.7397 19.8764 18.7121 19.8672 18.6845 19.8672C17.1392 19.8672 15.9251 21.0813 15.9251 22.6266C15.9251 24.1719 17.1484 25.386 18.6937 25.386Z" fill="black"/>
</g>
<defs>
<filter id="filter0_d_413_817" x="0.46796" y="0" width="48.0641" height="55.1881" filterUnits="userSpaceOnUse" color-interpolation-filters="sRGB">
<feFlood flood-opacity="0" result="BackgroundImageFix"/>
<feColorMatrix in="SourceAlpha" type="matrix" values="0 0 0 0 0 0 0 0 0 0 0 0 0 0 0 0 0 0 127 0" result="hardAlpha"/>
<feOffset dy="3.53204"/>
<feGaussianBlur stdDeviation="1.76602"/>
<feComposite in2="hardAlpha" operator="out"/>
<feColorMatrix type="matrix" values="0 0 0 0 0 0 0 0 0 0 0 0 0 0 0 0 0 0 0.25 0"/>
<feBlend mode="normal" in2="BackgroundImageFix" result="effect1_dropShadow_413_817"/>
<feBlend mode="normal" in="SourceGraphic" in2="effect1_dropShadow_413_817" result="shape"/>
</filter>
<clipPath id="clip0_413_817">
<rect width="22.0753" height="22.0753" fill="white" transform="matrix(-1 0 0 1 36.1699 8.83008)"/>
</clipPath>
</defs>
</svg>
