<svg width="95" height="108" viewBox="0 0 95 108" fill="none" xmlns="http://www.w3.org/2000/svg">
<g filter="url(#filter0_d_410_816)">
<path d="M38.2132 0C83.0805 -0.000842611 94.2973 35.3753 83.0805 94.0487C29.4397 82.6019 4.81819 65.6627 7.15125 31.0611C9.73974 16.393 20.9566 1.72482 38.2132 0Z" fill="#FA7300"/>
</g>
<circle cx="46.6902" cy="39.6907" r="27.6106" fill="white"/>
<g clip-path="url(#clip0_410_816)">
<path d="M56.9366 35.2327L53.8807 26.8201C53.3594 25.4 52.0113 24.4473 50.5013 24.4473H45.8276V28.0424H50.5013L53.1258 35.2327H44.4795L43.8323 33.4351H45.8276V29.84H36.8398V33.4351H39.9855L43.2571 42.4229H42.0527C41.2618 38.4144 37.9004 35.4484 33.6941 35.2506C28.6609 34.999 24.2568 39.1873 24.2568 44.2205C24.2568 49.2537 28.2115 53.2083 33.2447 53.2083C37.6667 53.2083 41.2438 50.1704 42.0527 46.0181H49.6025C50.3935 50.0266 53.7549 52.9926 57.9612 53.1904C62.9944 53.424 67.3984 49.2537 67.3984 44.2025C67.3984 39.1693 63.4438 35.2147 58.4106 35.2147H56.9366V35.2327ZM38.3138 46.0181C37.5948 48.1212 35.6354 49.6132 33.2447 49.6132C30.2248 49.6132 27.852 47.2404 27.852 44.2205C27.852 41.2006 30.2248 38.8278 33.2447 38.8278C35.6354 38.8278 37.5948 40.3198 38.3138 42.4229H33.2447V46.0181H38.3138ZM49.6025 42.4229H47.0859L45.7737 38.8278H51.2203C50.4294 39.8704 49.8542 41.0748 49.6025 42.4229ZM58.4106 49.6132C55.3907 49.6132 53.0179 47.2404 53.0179 44.2205C53.0179 42.5488 53.7549 41.1107 54.9054 40.122L56.631 44.8676L60.0104 43.6453L58.2668 38.8458C58.3207 38.8458 58.3747 38.8278 58.4286 38.8278C61.4485 38.8278 63.8213 41.2006 63.8213 44.2205C63.8213 47.2404 61.4305 49.6132 58.4106 49.6132Z" fill="black"/>
</g>
<defs>
<filter id="filter0_d_410_816" x="0.097343" y="0" width="93.9313" height="107.854" filterUnits="userSpaceOnUse" color-interpolation-filters="sRGB">
<feFlood flood-opacity="0" result="BackgroundImageFix"/>
<feColorMatrix in="SourceAlpha" type="matrix" values="0 0 0 0 0 0 0 0 0 0 0 0 0 0 0 0 0 0 127 0" result="hardAlpha"/>
<feOffset dy="6.90266"/>
<feGaussianBlur stdDeviation="3.45133"/>
<feComposite in2="hardAlpha" operator="out"/>
<feColorMatrix type="matrix" values="0 0 0 0 0 0 0 0 0 0 0 0 0 0 0 0 0 0 0.25 0"/>
<feBlend mode="normal" in2="BackgroundImageFix" result="effect1_dropShadow_410_816"/>
<feBlend mode="normal" in="SourceGraphic" in2="effect1_dropShadow_410_816" result="shape"/>
</filter>
<clipPath id="clip0_410_816">
<rect width="43.1416" height="43.1416" fill="white" transform="translate(24.2568 17.2568)"/>
</clipPath>
</defs>
</svg>
